<svg xmlns="http://www.w3.org/2000/svg" viewBox="0 0 379 379"><defs><style>.cls-1{fill:#4a9c45;}.cls-2{fill:#fff;}.cls-3{fill:#3e803d;}.cls-4{fill:none;stroke:#fff;stroke-linecap:round;stroke-linejoin:round;stroke-width:34px;}</style></defs><title>good_button</title><g id="Layer_2" data-name="Layer 2"><g id="buttons"><circle class="cls-1" cx="189.5" cy="189.5" r="181.5"/><path class="cls-2" d="M189.5,16A173.5,173.5,0,1,1,16,189.5,173.5,173.5,0,0,1,189.5,16m0-16a189.54,189.54,0,0,0-73.77,364.1A189.54,189.54,0,0,0,263.27,14.9,188.28,188.28,0,0,0,189.5,0Z"/><path class="cls-3" d="M341.12,105.12A173.53,173.53,0,0,1,30.88,259.88,173.52,173.52,0,1,0,341.12,105.12Z"/><polyline class="cls-4" points="88 192 166 269 281 112"/></g></g></svg>