<?xml version="1.0" encoding="utf-8"?>
<!-- Generator: Adobe Illustrator 16.0.0, SVG Export Plug-In . SVG Version: 6.00 Build 0)  -->
<!DOCTYPE svg PUBLIC "-//W3C//DTD SVG 1.1//EN" "http://www.w3.org/Graphics/SVG/1.1/DTD/svg11.dtd">
<svg version="1.1" id="Layer_1" xmlns="http://www.w3.org/2000/svg" xmlns:xlink="http://www.w3.org/1999/xlink" x="0px" y="0px"
	 width="500px" height="500px" viewBox="0 0 500 500" enable-background="new 0 0 500 500" xml:space="preserve">
<g>
	<path fill="#FFFFFF" d="M119.333,53c-32,18-33.815,215.067-33.815,215.067S83.626,432.897,96.333,449
		c15.487,19.625,371-140,371-181C467.334,236,143.893,39.186,119.333,53z"/>
	<g>
		<path fill="#FFFFFF" d="M107.978,33.572C95.59,40.793,89.376,54.32,84.711,67.218c-4.74,13.101-7.35,27-9.606,40.708
			c-5.699,34.628-8.452,69.739-10.25,104.763c-1.905,37.095-2.187,74.152-1.73,111.288c0.402,32.693,0.855,65.645,4.49,98.169
			c1.374,12.294,2.399,26.272,8.688,37.316c5.783,10.157,17.163,14.405,28.368,13.604c20.011-1.432,39.626-8.588,58.364-15.248
			c29.583-10.514,58.604-22.645,87.379-35.176c59.198-25.779,118.158-53.755,173.345-87.398
			c10.167-6.199,20.191-12.67,29.785-19.731c8.179-6.021,16.616-12.279,23.444-19.874c6.905-7.681,13.033-17.033,12.844-27.809
			c-0.19-10.787-6.345-19.377-13.142-27.156c-14.769-16.905-34.244-30.378-52.203-43.555
			c-25.357-18.605-51.604-36.005-78.111-52.919C293.006,110.145,238.257,77.069,181.06,49.79
			c-12.593-6.006-25.427-11.877-38.69-16.255C131.155,29.832,118.872,27.733,107.978,33.572
			c-10.798,5.787-14.096,20.501-8.072,30.784c6.364,10.863,19.973,13.867,30.784,8.072c2.313-1.24-7.171,2.672-4.332,1.853
			c3.225-0.931-6.975,0.816-4.673,0.576c1.032-0.108,2.081-0.041,3.11,0.061c3.228,0.317-7.729-1.155-3.953-0.519
			c0.646,0.109,1.288,0.243,1.928,0.381c1.603,0.347,3.186,0.783,4.758,1.246c3.807,1.12,7.541,2.488,11.239,3.923
			c2.111,0.819,4.207,1.677,6.295,2.552c-9.376-3.925,0.233,0.14,2.645,1.219c25.177,11.265,49.508,24.475,73.561,37.939
			c57.899,32.412,114.684,67.44,168.797,105.869c5.686,4.038,11.329,8.136,16.923,12.3c2.491,1.854,4.969,3.728,7.437,5.615
			c4.771,3.649-4.175-3.248-0.441-0.342c1.317,1.026,2.629,2.06,3.937,3.099c7.751,6.152,15.393,12.512,22.416,19.493
			c1.271,1.264,2.51,2.56,3.716,3.885c1.729,1.897,6.17,7.693-0.091-0.468c0.762,0.993,1.472,2.025,2.118,3.097
			c0.275,0.455,0.526,0.925,0.765,1.4c1.549,3.093-2.619-6.826-1.565-3.666c1.373,4.118-0.285-7.445-0.457-3.515
			c-0.13,2.968,1.326-7.739,0.566-4.431c-0.129,0.563-0.324,1.11-0.533,1.648c3.567-9.153,1.955-4.327,0.516-2.063
			c-0.356,0.56-0.741,1.1-1.133,1.634c-0.387,0.528,4.743-5.87,1.7-2.277c-2.381,2.812-5.076,5.354-7.832,7.793
			c-1.581,1.399-3.206,2.748-4.848,4.075c-0.884,0.715-1.777,1.416-2.674,2.113c7.358-5.727,2.503-1.938,0.742-0.628
			c-9.508,7.071-19.501,13.489-29.598,19.68c-26.18,16.051-53.396,30.423-80.825,44.202c-30.356,15.251-61.161,29.621-92.292,43.218
			c-3.613,1.577-7.232,3.142-10.856,4.695c-1.787,0.767-3.576,1.529-5.366,2.29c-0.888,0.377-1.777,0.753-2.666,1.129
			c7.41-3.135,2.617-1.104,0.96-0.409c-7.133,2.993-14.289,5.93-21.467,8.812c-12.859,5.164-25.799,10.132-38.856,14.772
			c-10.308,3.664-20.701,7.131-31.249,10.041c-3.954,1.09-7.937,2.083-11.958,2.896c-1.571,0.318-3.151,0.595-4.737,0.83
			c6.836-1.015,5.25-0.538,1.342-0.322c-1.058,0.059-2.12,0.057-3.176-0.021c-3.008-0.226,7.689,1.217,4.485,0.599
			c-0.418-0.081-0.826-0.201-1.225-0.351c9.469,3.537,6.096,2.907,4.43,1.77c7.676,5.243,5.506,4.51,4.141,3.166
			c-1.553-1.529,4.453,5.952,3.043,3.94c-0.348-0.497-0.62-1.048-0.88-1.594c-1.14-2.389,2.697,6.574,1.709,4.04
			c-0.198-0.508-0.368-1.025-0.538-1.543c-1.466-4.482-2.206-9.223-2.898-13.875c-0.875-5.885,0.742,5.867,0.126,0.955
			c-0.194-1.547-0.368-3.096-0.537-4.645c-0.4-3.66-0.729-7.328-1.033-10.998c-3.944-47.685-4.052-95.947-3.359-143.774
			c0.326-22.437,1.246-44.874,2.599-67.271c1.025-16.969,2.364-33.922,4.172-50.827c0.437-4.079,0.911-8.153,1.413-12.225
			c0.248-2.006,0.508-4.01,0.774-6.014c-1.18,8.896-0.008,0.217,0.301-1.894c1.134-7.738,2.454-15.451,4.025-23.112
			c1.974-9.625,4.36-19.25,7.956-28.411c1.623-4.134-2.337,5.407-1.041,2.443c0.4-0.915,0.831-1.815,1.272-2.71
			c0.799-1.624,1.698-3.196,2.68-4.715c1.129-1.747,3.788-4.924-1.821,2.204c0.458-0.582,0.956-1.131,1.467-1.667
			c0.474-0.497,0.988-0.953,1.516-1.392c-6.684,5.569-4.532,3.312-2.67,2.227c10.579-6.167,14.264-20.214,8.072-30.784
			C132.563,31.062,118.578,27.393,107.978,33.572z"/>
	</g>
</g>
</svg>
