<svg xmlns="http://www.w3.org/2000/svg" viewBox="0 0 832.86 358.96"><defs><style>.cls-1{fill:#eaeaea;}.cls-2,.cls-3{fill:none;stroke-linecap:round;stroke-linejoin:round;}.cls-2{stroke:#d8d8d8;stroke-width:44px;}.cls-3{stroke:#fdfefe;stroke-width:25px;}</style></defs><title>cloud_2_1</title><g id="Layer_2" data-name="Layer 2"><g id="cloud"><path class="cls-1" d="M134.62,338.79l506-2.67S658,356.06,686,357.46c26.66,1.33,46.66-18.67,46.66-18.67s69.47,35.08,94-44.67c21.34-69.33-49.33-95-49.33-95s27.6-40.53,8.5-80c-30-62-96-49-96-49s-27.72-67.64-102-68.5c-87-1-100,77.5-100,77.5s-57.44-16.84-135.17,7.67c-74,23.33-111.33,63.33-111.33,63.33S210.9,137,159,154.87c-43.5,15-50.34,57.25-50.34,57.25s-34.08-16.16-62,.17c-57.11,33.41-53.5,78-30.5,112.5C41.75,363.22,134.62,338.79,134.62,338.79Z"/><path class="cls-2" d="M757.62,213.79s64.5,20.5,51.5,72c0,0-13,62-75,30.5,0,0-46.16,46.83-87.5-.5l-510.5,3.5s-80.88,28.43-104.83-9.83c-19.67-31.42-2-53.34-2-53.34"/><path class="cls-3" d="M271.29,141.46s73.67-60,180-55.34"/><path class="cls-3" d="M508.37,59.29S538.62-11.46,622.12,21"/><path class="cls-3" d="M125.37,201.29s12.75-40.5,78-42.75"/><path class="cls-2" d="M654.62,234.79c40.67,20,20.67,81.33-27.33,80.67"/><path class="cls-2" d="M169.29,262.79s14,44-40.67,58.67"/><path class="cls-3" d="M548.62,176.79S466,137.46,382,228.79"/><path class="cls-3" d="M646.62,116.79s27-54.5,94-27.5"/></g></g></svg>