<svg xmlns="http://www.w3.org/2000/svg" viewBox="0 0 839.42 355.93"><defs><style>.cls-1{fill:#f1f2f2;}.cls-2{fill:#e6e7e8;}</style></defs><title>Cloud_1</title><g id="Layer_2" data-name="Layer 2"><g id="Layer_3" data-name="Layer 3"><path class="cls-1" d="M143.06,337.18l506-2.67s17.36,19.93,45.33,21.33c26.67,1.34,46.67-18.66,46.67-18.66s69.46,35.08,94-44.67c21.33-69.33-49.33-95-49.33-95s27.59-40.53,8.5-80c-30-62-96-49-96-49S670.51.86,596.23,0c-87-1-100,77.5-100,77.5s-57.44-16.84-135.17,7.67c-74,23.33-111.33,63.33-111.33,63.33s-30.39-13.16-82.34,4.75c-43.5,15-50.33,57.25-50.33,57.25s-37.92-16-63.92,1c-29,18.93-21,54-21,54s-42,10.65-29.75,51.75C15.64,361.51,143.06,337.18,143.06,337.18Z"/><path class="cls-2" d="M785.94,197.68s27.59-40.54,8.5-80c-15.43-31.89-40.39-43.94-61-48.12,5.94,2.53,63.39,28.25,50.15,82.12-9.54,38.83-41.87,47.83-41.87,47.83s15.37,30.9-9.34,62.67c-21,27-55.41,34.2-83.33,32-19-1.5-46-11.67-82-47.34-30.9-30.61-53.5-24.41-53.5-24.41s31.5,29.75,1,66c-28.45,33.81-81.95,25.66-111.75,15.75-39.08-13-39.75-40.5-55.25-41.5,0,0,3.83,40.16-82.83,51.66-82.62,11-95.8-14.51-113-25.83-21.67-14.25-33-15-33-15s7.27,8.12,2.66,28c-4.22,18.26-32,34.29-63.08,30.17-60.25-8-50.87-49.5-50.87-49.5s-16.34,19.16-.59,43.66c26.09,40.58,136.21,11.34,136.21,11.34l506-2.67a68.75,68.75,0,0,0,45.33,21.33c26.71,1.56,46.67-18.66,46.67-18.66s67,35.52,93.25-40.5C859.06,224.93,785.94,197.68,785.94,197.68Z"/></g></g></svg>