<svg xmlns="http://www.w3.org/2000/svg" viewBox="0 0 186.59 161.04"><defs><style>.cls-1{fill:#fff;}</style></defs><title>Asset 1</title><g id="Layer_2" data-name="Layer 2"><g id="Layer_2-2" data-name="Layer 2"><path class="cls-1" d="M186.09,84.19c-1.77-13-51.66-4.86-50.59-20.17,1-14.33,41.45-11.27,33.09-28.4C157.16,12.18,123.5,0,92.86,0,41.57,0,0,36.05,0,80.52S41.57,161,92.86,161,192.08,128.25,186.09,84.19ZM31.33,51.35c5.84,5.34,11.17,5,11.17,11.17s-6.16,7.57-11.17,11.17c-6.5,4.66-11.16-5-11.16-11.17S26.78,47.19,31.33,51.35ZM34.43,110c-6.44,0-8.3-6.17-11.66-11.67-3.67-6,9.66-5.33,15.66-11.66,4.43-4.68,3.66,8.6,9.34,11.66C52.71,101,40.88,110,34.43,110Zm31.23,26.83c-2.71-5.79-11.58-5.18-11.58-11.58s5.33-6.92,11.58-11.58c5.12-3.83,8.06,6.24,11.58,11.58C81.69,132,68.54,143,65.66,136.85Zm44.06,8.61c-6.55,6.23-5.22-6.79-9.89-11.64s5.52-17,9.89-12.13c7.45,8.33,11.89,5.32,11.89,11.89S114.49,140.94,109.72,145.46ZM106.45,48c-8.38,0-15.17-4.18-15.17-9.33s6.79-9.34,15.17-9.34,15.16,4.18,15.16,9.34S114.82,48,106.45,48Z"/></g></g></svg>