<svg xmlns="http://www.w3.org/2000/svg" xmlns:xlink="http://www.w3.org/1999/xlink" viewBox="0 0 4200.42 912.53"><defs><style>.cls-1{fill:url(#linear-gradient);}.cls-2{fill:url(#linear-gradient-2);}.cls-3{fill:url(#linear-gradient-3);}.cls-4{fill:url(#linear-gradient-4);}.cls-5{fill:url(#linear-gradient-5);}.cls-6{fill:url(#linear-gradient-6);}.cls-7{fill:url(#linear-gradient-7);}.cls-10,.cls-11,.cls-12,.cls-13,.cls-8,.cls-9{fill:none;stroke:#bfe6f1;stroke-linecap:round;stroke-miterlimit:10;}.cls-8{stroke-width:24px;}.cls-9{stroke-width:20px;}.cls-10{stroke-width:17px;}.cls-11{stroke-width:13px;}.cls-12{stroke-width:9px;}.cls-13{stroke-width:6px;}</style><linearGradient id="linear-gradient" x1="2054.66" y1="228.39" x2="2044.43" y2="-64.72" gradientUnits="userSpaceOnUse"><stop offset="0" stop-color="#3c88a7"/><stop offset="0.2" stop-color="#458fad"/><stop offset="0.54" stop-color="#5ea1bc"/><stop offset="0.96" stop-color="#87c0d5"/><stop offset="1" stop-color="#8bc3d8"/></linearGradient><linearGradient id="linear-gradient-2" x1="2075.67" y1="322.81" x2="2064.75" y2="10.27" xlink:href="#linear-gradient"/><linearGradient id="linear-gradient-3" x1="2085.18" y1="424.99" x2="2073.98" y2="104.24" xlink:href="#linear-gradient"/><linearGradient id="linear-gradient-4" x1="2093.14" y1="531.09" x2="2080.59" y2="171.88" xlink:href="#linear-gradient"/><linearGradient id="linear-gradient-5" x1="2106.43" y1="625.62" x2="2094.39" y2="280.89" xlink:href="#linear-gradient"/><linearGradient id="linear-gradient-6" x1="2076.95" y1="778.58" x2="2063.46" y2="392.29" xlink:href="#linear-gradient"/><linearGradient id="linear-gradient-7" x1="2093.78" y1="983.06" x2="2078.63" y2="549.15" xlink:href="#linear-gradient"/></defs><title>ocean_together</title><g id="Layer_2" data-name="Layer 2"><g id="waves"><path class="cls-1" d="M34.08,5.48s64.49,6,144,0,100.5-6,168,0,129,4.5,165,0,109.5-7.5,165,0,91.49,3,151.49,0,104.68-8.93,168,0c48.65,6.86,124.49,1.5,162,0s72-9,165,0S1441,7,1483,5.48s125.88-4.27,174,0c76.56,6.79,138,1.5,169.49,0s124.49-7.5,204,0,169.56,2,196.49,0c30.58-2.27,130.49-6,186,0s132,3,169.49,0,115.77-9.6,193.49,0c44.08,5.44,160.16,1,172.49,0,69.79-5.6,155.53-4.28,196.49,0,61.3,6.4,151.32,1.24,172.49,0,38.81-2.27,115.48-10.93,198,0,34.33,4.55,127.3,2.13,166.5,0,41.65-2.27,115.65-9.6,183,0,29.58,4.22,171,1.5,192,0s0,153,0,153H34.08Z"/><path class="cls-2" d="M39.39,82.63s81.46-8.52,176-2c58,4,89,10,170-2,109.69-16.25,145-6.15,190-4,42,2,78.76,12.18,194-2,65-8,90-12,194-2,136.09,13.08,161,1.07,190-2,66-7,148-4,211,7,61.17,10.68,149.37,5.44,183-1,47-9,180-7,230,1s169,4.42,208-1c72-10,133-9,222,0,27.64,2.79,139.63,8.3,211-2,97-14,131-7,211,0,23.32,2,165.66,10.05,206,4,60-9,134-17,228-4,44.52,6.16,169.09,12.12,204,6,57-10,142-9,212-3,54.39,4.66,135,19,220,5,115-18.93,142-11,202-2,26.39,4,146,20,184,4s0,170,0,170H39.39Z"/><path class="cls-3" d="M63,174.46s145.26,16.23,279,0c136-16.5,223-19.66,314.69-8.5,69.26,8.44,184,11.34,279.37,2.5,225-20.85,142-19.83,363-3,222.67,16.95,324-6,324-6s147.56-24.16,312-3c162.91,21,245.4,13.94,327,9,79.82-4.83,146.49-22.83,315-6,168.88,16.86,285-3,285-3s205.93-21.69,309,0c118.07,24.84,236.32,2.79,315,0,89-3.16,146.37-19.83,306,0,161.17,20,312-3,312-3v201H54Z"/><path class="cls-4" d="M30,252.47s228-36,429.05,0,411-3,411-3,219-42,411-3,429-3,429-3,243-33,420,3,417-3,417-3,276-48,441.05,0,369-3,369-3,237-45,381-3,405-3,405-3v225H30Z"/><path class="cls-5" d="M0,363.48s282,54,495.05-6,498.05-6,498.05-6,294,51,537.05-9,588.06,0,588.06,0,399,51,573.06-9,555.05-3,555.05-3,339,72,540.06,9,414,3,414,3v210H0Z"/><path class="cls-6" d="M66,489.49s264-81,654.06-6,705.07-3,705.07-3,417-87,711.07-3,729.08,0,729.08,0,306-75,630.06-6,588.06-9,588.06-9v246H57Z"/><path class="cls-7" d="M60,645.51s315-84,753.07,0,843.09-3,843.09-3,495-78,822.08,0,780.08,12,810.08,6,351-90,825.08,0v264H60Z"/><path class="cls-8" d="M1645.89,656.63s263-45.5,500-35.5"/><path class="cls-8" d="M3336.05,650s204-46.66,448-28.66"/><path class="cls-8" d="M1174.39,524.63s147-7,274-36"/><path class="cls-8" d="M2821.39,498s186.91-40.91,312.25-41.58"/><path class="cls-9" d="M470.05,374s104.67-34,197.34-33.33"/><path class="cls-9" d="M1333.64,380.13s82.41-2.83,148.41-19.5,113.92-22.67,150.59-26"/><path class="cls-9" d="M2673.39,350s80.66-32.66,197.66-33"/><path class="cls-10" d="M3936.72,264s129.33-5.33,222.33-23.66"/><path class="cls-10" d="M3157.39,272.3s91.81-4.43,162.33-16c44.67-7.34,117.33-21.34,167-23"/><path class="cls-10" d="M2203.39,265.63s151,13.5,301.5-7.5"/><path class="cls-10" d="M863.72,259.63s113-20,195-19.67"/><path class="cls-8" d="M62.72,659.3s121.33-42.67,408-38"/><path class="cls-11" d="M1594.39,171.13s83.25-16.25,172.25-16.75"/><path class="cls-11" d="M2745.05,173s70.67-3.66,143.67-12.33"/><path class="cls-11" d="M331.14,182.63s111-18,213.75-16.25"/><path class="cls-11" d="M3768.14,160.38s112.75,14,196.25,10.5"/><path class="cls-12" d="M749.39,79.46S819.72,69.05,870.72,69.3"/><path class="cls-12" d="M1569.64,76.13s-51.75,8.5-85.25,9.25"/><path class="cls-12" d="M1976.72,80.63s60.5-9.83,117.33-8.67"/><path class="cls-12" d="M3033.89,73.63s89.5,11.67,163,12"/><path class="cls-12" d="M3715.05,82.63a645.34,645.34,0,0,1,104.67-9.17"/><path class="cls-13" d="M1082.39,11.63s66-2.33,123.83-6.67"/><path class="cls-13" d="M115.22,11s26.17.5,89.83-4.33c42.21-3.2,56.17-4.83,83.17-2.33"/><path class="cls-13" d="M1786.39,10.63s102.16-6.83,150.33-6"/><path class="cls-13" d="M2507.22,11.8s64.5-1.84,107-5.84"/><path class="cls-13" d="M3218.72,11.63s65.33-.17,114.67-4.5,95.08-4.33,111.75-4"/></g></g></svg>