<svg xmlns="http://www.w3.org/2000/svg" xmlns:xlink="http://www.w3.org/1999/xlink" viewBox="0 0 4050.41 207.66"><defs><style>.cls-1{fill:url(#linear-gradient);}.cls-2{fill:none;stroke:#bfe6f1;stroke-linecap:round;stroke-miterlimit:10;stroke-width:13px;}</style><linearGradient id="linear-gradient" x1="2031.17" y1="278.17" x2="2019.97" y2="-42.58" gradientUnits="userSpaceOnUse"><stop offset="0" stop-color="#3c88a7"/><stop offset="0.2" stop-color="#458fad"/><stop offset="0.54" stop-color="#5ea1bc"/><stop offset="0.96" stop-color="#87c0d5"/><stop offset="1" stop-color="#8bc3d8"/></linearGradient></defs><title>wave_5</title><g id="Layer_2" data-name="Layer 2"><g id="waves"><path class="cls-1" d="M9,27.64s145.26,16.23,279,0c136-16.5,223-19.66,314.68-8.5,69.27,8.44,184,11.34,279.38,2.5,225-20.85,142-19.83,363-3,222.68,17,324-6,324-6s147.55-24.16,312-3c162.91,21,245.39,13.94,327,9,79.83-4.83,146.49-22.83,315-6,168.88,16.86,285-3,285-3s205.94-21.69,309,0c118.07,24.84,236.33,2.79,315,0,89-3.16,146.37-19.83,306,0,161.17,20,312-3,312-3v201H0Z"/><path class="cls-2" d="M1540.38,24.31s83.25-16.25,172.25-16.75"/><path class="cls-2" d="M2691.05,26.14s70.67-3.66,143.67-12.33"/><path class="cls-2" d="M277.13,35.81s111-18,213.75-16.25"/><path class="cls-2" d="M3714.13,13.56s112.75,14,196.25,10.5"/></g></g></svg>