<svg xmlns="http://www.w3.org/2000/svg" xmlns:xlink="http://www.w3.org/1999/xlink" viewBox="0 0 4032.13 158.47"><defs><style>.cls-1{fill:url(#linear-gradient);}.cls-2{fill:none;stroke:#bfe6f1;stroke-linecap:round;stroke-miterlimit:10;stroke-width:6px;}</style><linearGradient id="linear-gradient" x1="2020.59" y1="228.39" x2="2010.35" y2="-64.72" gradientUnits="userSpaceOnUse"><stop offset="0" stop-color="#3c88a7"/><stop offset="0.2" stop-color="#458fad"/><stop offset="0.54" stop-color="#5ea1bc"/><stop offset="0.96" stop-color="#87c0d5"/><stop offset="1" stop-color="#8bc3d8"/></linearGradient></defs><title>wave_7</title><g id="Layer_2" data-name="Layer 2"><g id="waves"><path class="cls-1" d="M0,5.48s64.5,6,144,0,100.5-6,168,0,129,4.5,165,0,109.49-7.5,165,0,91.49,3,151.49,0,104.68-8.93,168,0c48.65,6.86,124.5,1.5,162,0s72-9,165,0,118.49,1.5,160.49,0,125.88-4.27,174,0c76.56,6.79,138,1.5,169.49,0s124.49-7.5,204,0,169.57,2,196.49,0c30.59-2.27,130.49-6,186,0s132,3,169.49,0,115.77-9.6,193.49,0c44.09,5.44,160.17,1,172.49,0,69.79-5.6,155.53-4.28,196.49,0,61.3,6.4,151.32,1.24,172.5,0,38.8-2.27,115.47-10.93,198,0,34.32,4.55,127.29,2.13,166.49,0,41.66-2.27,115.66-9.6,183,0,29.59,4.22,171,1.5,192,0s0,153,0,153H0Z"/><path class="cls-2" d="M1048.31,11.63s66-2.33,123.83-6.67"/><path class="cls-2" d="M81.14,11s26.17.5,89.84-4.33c42.2-3.2,56.16-4.83,83.16-2.33"/><path class="cls-2" d="M1752.31,10.63s102.17-6.83,150.33-6"/><path class="cls-2" d="M2473.14,11.8s64.5-1.84,107-5.84"/><path class="cls-2" d="M3184.64,11.63s65.34-.17,114.67-4.5,95.08-4.33,111.75-4"/></g></g></svg>