<svg xmlns="http://www.w3.org/2000/svg" xmlns:xlink="http://www.w3.org/1999/xlink" viewBox="0 0 4200.42 246.49"><defs><style>.cls-1{fill:url(#linear-gradient);}.cls-2{fill:none;stroke:#bfe6f1;stroke-linecap:round;stroke-miterlimit:10;stroke-width:20px;}</style><linearGradient id="linear-gradient" x1="2106.43" y1="319.62" x2="2094.39" y2="-25.11" gradientUnits="userSpaceOnUse"><stop offset="0" stop-color="#3c88a7"/><stop offset="0.2" stop-color="#458fad"/><stop offset="0.54" stop-color="#5ea1bc"/><stop offset="0.96" stop-color="#87c0d5"/><stop offset="1" stop-color="#8bc3d8"/></linearGradient></defs><title>wave_3</title><g id="Layer_2" data-name="Layer 2"><g id="waves"><path class="cls-1" d="M0,57.47s282,54,495.05-6,498.05-6,498.05-6,294,51,537.05-9,588.06,0,588.06,0,399,51,573.06-9,555.05-3,555.05-3,339,72,540.06,9,414,3,414,3v210H0Z"/><path class="cls-2" d="M470.05,68S574.72,34,667.39,34.62"/><path class="cls-2" d="M1333.64,74.12s82.41-2.83,148.41-19.5S1596,32,1632.64,28.62"/><path class="cls-2" d="M2673.39,44s80.66-32.67,197.66-33"/></g></g></svg>