<svg xmlns="http://www.w3.org/2000/svg" xmlns:xlink="http://www.w3.org/1999/xlink" viewBox="0 0 4062.89 188.08"><defs><style>.cls-1{fill:url(#linear-gradient);}.cls-2{fill:none;stroke:#bfe6f1;stroke-linecap:round;stroke-miterlimit:10;stroke-width:9px;}</style><linearGradient id="linear-gradient" x1="2036.28" y1="258.26" x2="2025.37" y2="-54.28" gradientUnits="userSpaceOnUse"><stop offset="0" stop-color="#3c88a7"/><stop offset="0.2" stop-color="#458fad"/><stop offset="0.54" stop-color="#5ea1bc"/><stop offset="0.96" stop-color="#87c0d5"/><stop offset="1" stop-color="#8bc3d8"/></linearGradient></defs><title>wave_6</title><g id="Layer_2" data-name="Layer 2"><g id="waves"><path class="cls-1" d="M0,18.08s81.46-8.52,176-2c58,4,89,10,170-2,109.69-16.25,145-6.14,190-4,42,2,78.77,12.19,194-2,65-8,90-12,194-2,136.09,13.09,161,1.07,190-2,66-7,148-4,211,7,61.17,10.68,149.38,5.44,183-1,47-9,180-7,230,1s169,4.42,208-1c72-10,133-9,222,0,27.64,2.8,139.63,8.3,211-2,97-14,131-7,211,0,23.32,2,165.66,10,206,4,60-9,134-17,228-4,44.52,6.16,169.09,12.13,204,6,57-10,142-9,212-3,54.39,4.66,135,19,220,5,114.95-18.93,142-11,202-2,26.39,4,146,20,184,4s0,170,0,170H0Z"/><path class="cls-2" d="M710,14.92S780.33,4.5,831.33,4.75"/><path class="cls-2" d="M1530.25,11.58s-51.75,8.5-85.25,9.25"/><path class="cls-2" d="M1937.33,16.08s60.5-9.83,117.34-8.66"/><path class="cls-2" d="M2994.5,9.08s89.5,11.67,163,12"/><path class="cls-2" d="M3675.67,18.08a645.82,645.82,0,0,1,104.66-9.16"/></g></g></svg>