<svg xmlns="http://www.w3.org/2000/svg" xmlns:xlink="http://www.w3.org/1999/xlink" viewBox="0 0 4137.55 239.94"><defs><style>.cls-1{fill:url(#linear-gradient);}.cls-2{fill:none;stroke:#bfe6f1;stroke-linecap:round;stroke-miterlimit:10;stroke-width:17px;}</style><linearGradient id="linear-gradient" x1="2063.13" y1="311.54" x2="2050.59" y2="-47.66" gradientUnits="userSpaceOnUse"><stop offset="0" stop-color="#3c88a7"/><stop offset="0.2" stop-color="#458fad"/><stop offset="0.54" stop-color="#5ea1bc"/><stop offset="0.96" stop-color="#87c0d5"/><stop offset="1" stop-color="#8bc3d8"/></linearGradient></defs><title>wave_4</title><g id="Layer_2" data-name="Layer 2"><g id="waves"><path class="cls-1" d="M0,32.92s228-36,429,0,411-3,411-3,219-42,411.05-3,429-3,429-3,243-33,420,3,417-3,417-3,276-48,441.05,0,369-3,369-3,237-45,381-3,405-3,405-3v225H0Z"/><path class="cls-2" d="M3906.72,44.42s129.33-5.34,222.33-23.67"/><path class="cls-2" d="M3127.38,52.75s91.81-4.42,162.34-16c44.66-7.33,117.33-21.33,167-23"/><path class="cls-2" d="M2173.38,46.08s151,13.5,301.5-7.5"/><path class="cls-2" d="M833.72,40.08s113-20,195-19.66"/></g></g></svg>