<svg xmlns="http://www.w3.org/2000/svg" xmlns:xlink="http://www.w3.org/1999/xlink" viewBox="0 0 917.91 550.87"><defs><style>.cls-1{fill:url(#linear-gradient);}.cls-2{fill:#573521;}.cls-3{fill:url(#linear-gradient-2);}.cls-4,.cls-6{fill:none;stroke-linecap:round;stroke-width:18px;}.cls-4{stroke:#f9f9fa;stroke-miterlimit:10;}.cls-5{fill:#bcbec0;}.cls-6{stroke:#bcbec0;stroke-linejoin:round;}</style><linearGradient id="linear-gradient" x1="326.23" y1="40.74" x2="492.62" y2="661.69" gradientUnits="userSpaceOnUse"><stop offset="0" stop-color="#975c38"/><stop offset="0.41" stop-color="#794a2d"/><stop offset="0.68" stop-color="#6b4228"/><stop offset="1" stop-color="#643e26"/></linearGradient><linearGradient id="linear-gradient-2" x1="382.49" y1="32.69" x2="510.92" y2="385.54" gradientUnits="userSpaceOnUse"><stop offset="0" stop-color="#f2f2f2"/><stop offset="0.49" stop-color="#e4e4e4"/><stop offset="1" stop-color="#d1d1d1"/></linearGradient></defs><title>mountain_shaded_1</title><g id="Layer_2" data-name="Layer 2"><g id="Layer_1-2" data-name="Layer 1"><path class="cls-1" d="M7.88,517.83,291.41,180.12s12.3-17.07,25.51-11.71c9.17,3.72,17.71-9,17.71-9L457,10.66a25.77,25.77,0,0,1,40.37.75L623.23,176.05a11,11,0,0,0,9.95,4.27,14.91,14.91,0,0,1,13.28,5.54l265.17,334s7.92,10.13,6,20.91-14.1,10.13-14.1,10.13H17.17s-13.34,0-16.51-10.5C-2.7,529.28,7.88,517.83,7.88,517.83Z"/><path class="cls-2" d="M24.79,497.69,7.88,517.83S-2.7,529.28.66,540.36c3.17,10.46,16.51,10.5,16.51,10.5H903.5s12.15.66,14.1-10.13-6-20.91-6-20.91L725.49,285.4s-10.58-8.54-22.58-2.87-7,24.16-7,24.16,22,96,14.5,117.5c-7.94,22.78-47.5,48-95,42-46.66-5.89-99.75-32.25-156.5-22.5s-70.39,33.13-151.5,56.5c-59,17-126.51,22.19-169.83,20-39.67-2-54.51-7.24-74.17-14.75C49.66,500.19,48,491.44,39,490.82S24.79,497.69,24.79,497.69Z"/><path class="cls-3" d="M220.34,283.2c5,12.57,42.55,51.23,82.87,32.81,40.11-18.33,62.2-29.27,62.2-29.27A56.75,56.75,0,0,1,418,289l34.64,20.07a90.6,90.6,0,0,0,92.71-1.12l45.52-27.85a57.75,57.75,0,0,1,68.93,6.48s31.77,24.62,55.61,23.62a15.74,15.74,0,0,0,9.33-3.26,15,15,0,0,0,2.4-21.08l-80-100.5a15,15,0,0,0-13.34-5.57,11.08,11.08,0,0,1-10-4.28L497.47,10.17a25.88,25.88,0,0,0-40.54-.75L334,158.83s-8.58,12.73-17.79,9c-13.26-5.38-25.61,11.76-25.61,11.76l-65.71,79.28S214.91,269.53,220.34,283.2Z"/><line class="cls-4" x1="463.91" y1="15.03" x2="355.58" y2="146.69"/><line class="cls-4" x1="301.79" y1="180.25" x2="254.72" y2="236.94"/><path class="cls-5" d="M714.28,310.23a44,44,0,0,1-14.2-2.26c-20.42-5.9-38.67-20.33-41.05-22.19a9,9,0,0,1-1.54-12.63,9.16,9.16,0,0,1,12.63-1.55c14.48,10.22,26.35,15.84,31.85,17.53,2.14.65,3.82-.81,2.58-2.74-.14-.22-60-75.26-60-75.26a9,9,0,0,1,14.08-11.21s54.79,69,59.54,74.15c8.88,9.57,16.5,18.81,9.5,29.93C724.4,309.19,719.42,310.23,714.28,310.23Zm-1.53-13h0Z"/><path class="cls-6" d="M595.91,267.53a489.47,489.47,0,0,0-42,25.41c-21.62,14.63-41.87,21.13-66.66,18.75-22-2.11-41.84-17.16-41.84-17.16"/><path class="cls-6" d="M357.25,280.69s-52.5,26.25-59.84,28.84-25.75,11.66-53.5-12.34"/><path class="cls-4" d="M514.41,149.69s-14.07-3.35-31,13.75c-24.16,24.42-45.16,53.75-45.16,53.75"/></g></g></svg>