<svg xmlns="http://www.w3.org/2000/svg" xmlns:xlink="http://www.w3.org/1999/xlink" viewBox="0 0 850.85 465.36"><defs><style>.cls-1{fill:url(#linear-gradient);}.cls-2,.cls-3{fill:none;stroke-linecap:round;stroke-miterlimit:10;stroke-width:14px;}.cls-2{stroke:#eec5dd;}.cls-3{stroke:#703c5c;}</style><linearGradient id="linear-gradient" x1="372.59" y1="10.36" x2="458.83" y2="499.47" gradientUnits="userSpaceOnUse"><stop offset="0" stop-color="#df82b6"/><stop offset="0.29" stop-color="#d77aaf"/><stop offset="0.73" stop-color="#c3659c"/><stop offset="1" stop-color="#b3548e"/></linearGradient></defs><title>brain_01</title><g id="Layer_2" data-name="Layer 2"><g id="Layer_8" data-name="Layer 8"><path class="cls-1" d="M692.1,447.88c-17.79-4.44-22.16-9-34.83-7.66s-14.58,7.8-31.33,12.66c-20.67,6-36,10.67-70,2.43-8.21-2-24.49-7.33-33.33-7.09-12.28.32-17.83,5.77-30,8.72-52,12.61-77.33,7.78-112.66,2.61-12.22-1.79-26.28-7.19-34-7.33-12.26-.22-21.22,2.92-36.73,4.48-67.94,6.85-125.94-2.48-167.11-17.48-7.62-2.78-14.77-9.22-23.5-10.34-9.75-1.25-16,4.67-32.5,3.67-43.63-2.64-76.84-31.79-78.83-77.67-.67-15.33,4.64-25.95,4-40-.67-14.66-10-20.66-10.83-42-1.54-39.34,23.78-103.36,79.5-138,24.66-15.33,44.4-12.55,55.33-19.33,13.46-8.35,16-20.55,30.83-37,22.75-25.17,78.75-53.42,134.25-49,23.68,1.89,29.16,9.68,41.09,7.65,13.73-2.34,23.22-12.82,36.44-20.52C407.27-.45,445.27-3.78,475.27,5.55c22.23,6.92,30.36,15.59,42,15.33,9.89-.21,22.07-7.61,41.17-11.87,35.87-8,93,8,109.5,27.87,15,18,13.66,25.67,25.33,33.34,9.86,6.47,26.67,3.66,50.17,13.16,33.3,13.47,75.16,59.5,79.16,106.17,1.68,19.56-4.45,33.48-.66,45.33,6,18.88,11.33,20,18.83,34.34,17.4,33.25,11.6,68.45-12.17,92.33-12.21,12.27-20.76,11.19-29.33,21.33-7.2,8.53-6,27.34-14.5,37.67C757.26,454,724.1,455.88,692.1,447.88Z"/><path class="cls-2" d="M479.27,14.22S434.46-5.4,385.44,20.05c-30.5,15.83-27.5,29.5-27.5,29.5"/><path class="cls-2" d="M246.27,41.55s-33,3.67-72.42,38.08a70.54,70.54,0,0,0-19.25,28.25"/><path class="cls-2" d="M128.1,133.72s-22.85-5-44.16,6.83c-13.84,7.67-54.36,37.21-71.59,94.83-8.91,29.84-4,47.55-4,47.55"/><path class="cls-2" d="M31.77,326.72s-16.83-1-18,21.33c-1.56,29.82,13.5,47.5,13.5,47.5"/><path class="cls-2" d="M679.94,91.22s18.66-15,53.66-3.84c28.67,9.15,40.34,25.17,40.34,25.17"/><path class="cls-2" d="M521.6,48.22s-6.33-21,28-31.67,79.34,6,79.34,6"/><path class="cls-3" d="M667.6,412.88s-7.71,18.71,19.34,26.34c39,11,67.62,5.29,90.33-20.34,13-14.66,6-33.33,6-33.33"/><path class="cls-3" d="M640.85,416.63s6.38,19.25-8.62,26.75c-22.1,11.05-67.38,18.75-99.13-6"/><path class="cls-3" d="M498.6,411.88s30.75,22.25-5.5,37.25c-41.23,17.07-115.25,7.25-138.5-3.75"/><path class="cls-3" d="M322.35,407.13s24,37.25-11.25,42c-38.79,5.23-133,6.25-180.5-23.5"/><path class="cls-3" d="M842.1,294.38s11.34,48.84-27.16,68.84c-32.47,16.86-33.34-17.34-33.34-17.34"/><path class="cls-2" d="M484.1,64.88S382.27,48.46,322.35,81.38c-45.5,25-18.25,53.5-18.25,53.5"/><path class="cls-2" d="M249.6,101.38s-102.08,6-140,60.5c-20,28.75-1.75,47-1.75,47"/><path class="cls-2" d="M77.6,238.13s-23.75-10.75-37.75,11c-17.49,27.18-12.25,57.5-12.25,57.5"/><path class="cls-2" d="M691.6,112.38s-41-38.28-91-36c-43.75,2-36,31-36,31"/><path class="cls-2" d="M525.6,156.88s-87.37-24.09-137-6c-32,11.67-31.33,34.67-31.33,34.67"/><path class="cls-2" d="M602.6,196.88s4.35-27.92,47-25c34,2.34,70,33,70,33"/><path class="cls-2" d="M280.6,196.88s-77-19-111,31"/><path class="cls-2" d="M197.6,287.88s-66.66-5.66-89,22c-15.74,19.5-2,37.67-2,37.67"/><path class="cls-2" d="M620.6,278.88s-55-51.66-118-35c-40.86,10.81-35.33,35-35.33,35"/><path class="cls-2" d="M382.6,263.88s-69.25-10-100,15c-16.35,13.3-15.25,29-15.25,29"/><path class="cls-3" d="M162.35,197.63s28.35-28.52,88.25-31.5c45.25-2.25,27-36.5,27-36.5"/><path class="cls-3" d="M364.6,136.55s42.75-25.92,118.75-13.67c46.39,7.48,37.75-28.5,37.75-28.5"/><path class="cls-3" d="M587.94,131.22s11.75,16.2,54.66,17.66c29.34,1,44.5,13.25,54.25,18.75,12.18,6.88,32.25.25,23.5-21.75"/><path class="cls-3" d="M753.1,172.63s8.48,26.4,19.5,38.25c13.25,14.25,46.5,21.75,42.5-23"/><path class="cls-3" d="M119.27,241.22s14.33,11.66-.33,29-39,21.33-47.67,40"/><path class="cls-3" d="M71.1,342.88s3,24.5,19.17,46.34c16,21.58,6.83,45.83-31,30.33"/><path class="cls-3" d="M203.1,261.63s35.82-.58,66.75-10c40.25-12.25,32-33.25,32-33.25"/><path class="cls-3" d="M391.94,220.22s35.53,20.69,71.16-.59c33.5-20,90.25,13,77.5-33.25"/><path class="cls-3" d="M627.6,231.88s32,5.5,65.5,39.5c37.9,38.47,80,37,69-2.5"/><path class="cls-3" d="M499,316.62s37.81-7.08,82.15,20.51c37.1,23.09,61.55,3.77,54.72-19.06"/><path class="cls-3" d="M306.6,339.22s44.71-26.42,98.67-11c35,10,43.67-21.67,23.33-36.34"/><path class="cls-3" d="M142.27,353.55s31.07-21,72-13.67c39,7,37.67-25.33,22-35"/><path class="cls-2" d="M143.6,386.88s23-36,129-3"/><path class="cls-2" d="M470.6,384.88s-32.23,16.17-68.75,1.5c-29.25-11.75-54.25-2.5-52.25,16.5"/><path class="cls-2" d="M526.6,400.88s4-36,68-11"/><path class="cls-2" d="M675.6,379.88s13-21,64-15"/></g></g></svg>