<?xml version="1.0" encoding="utf-8"?>
<!-- Generator: Adobe Illustrator 16.0.0, SVG Export Plug-In . SVG Version: 6.00 Build 0)  -->
<!DOCTYPE svg PUBLIC "-//W3C//DTD SVG 1.1//EN" "http://www.w3.org/Graphics/SVG/1.1/DTD/svg11.dtd">
<svg version="1.1" id="Layer_1" xmlns="http://www.w3.org/2000/svg" xmlns:xlink="http://www.w3.org/1999/xlink" x="0px" y="0px"
	 width="500px" height="500px" viewBox="0 0 500 500" enable-background="new 0 0 500 500" xml:space="preserve">
<path fill="#FFFFFF" stroke="#FFFFFF" stroke-width="13" stroke-linecap="round" stroke-linejoin="round" stroke-miterlimit="10" d="
	M486.184,277.307v-54.613l-56.689-9.662c-4.767-23.112-13.923-44.625-26.546-63.651l33.367-47.08l-38.617-38.617l-47.286,33.515
	c-18.962-12.404-40.365-21.406-63.345-26.111l-9.761-57.272h-54.613l-9.761,57.272c-22.979,4.705-44.383,13.707-63.345,26.111
	l-47.286-33.515l-38.618,38.617l33.368,47.08c-12.624,19.026-21.78,40.539-26.546,63.651l-56.69,9.662v54.613l56.689,9.661
	c4.767,23.113,13.922,44.626,26.546,63.652l-33.368,47.078l38.617,38.617l47.287-33.515c18.962,12.404,40.365,21.407,63.345,26.111
	l9.761,57.271h54.613l9.761-57.271c22.98-4.704,44.383-13.707,63.346-26.111l47.285,33.515l38.617-38.617l-33.367-47.077
	c12.625-19.027,21.779-40.54,26.546-63.653L486.184,277.307z M250,332.869c-45.918,0-83.141-37.102-83.141-82.869
	c0-45.768,37.223-82.87,83.141-82.87s83.142,37.102,83.142,82.87C333.142,295.768,295.918,332.869,250,332.869z"/>
</svg>
