<svg xmlns="http://www.w3.org/2000/svg" xmlns:xlink="http://www.w3.org/1999/xlink" viewBox="0 0 2668 505.51"><defs><style>.cls-1{fill:url(#linear-gradient);}.cls-2,.cls-3,.cls-5,.cls-6{fill:none;stroke:#e0f0de;stroke-linecap:round;stroke-miterlimit:10;}.cls-2{stroke-width:28px;}.cls-3{stroke-width:40px;}.cls-4{fill:#006838;}.cls-5{stroke-width:29px;}.cls-6{stroke-width:22px;}</style><linearGradient id="linear-gradient" x1="1340.49" y1="598.34" x2="1302.55" y2="55.72" gradientUnits="userSpaceOnUse"><stop offset="0" stop-color="#108542"/><stop offset="0.18" stop-color="#158845"/><stop offset="0.4" stop-color="#23914d"/><stop offset="0.63" stop-color="#3ba05a"/><stop offset="0.87" stop-color="#5bb56d"/><stop offset="1" stop-color="#70c279"/></linearGradient></defs><title>kapiti_island_4_1</title><g id="Layer_2" data-name="Layer 2"><g id="island"><path class="cls-1" d="M2668,505.51c-12.33-86.33-129.91-245.62-227.33-332.33-91-81-215-167.34-356-171-77-2-134.5,31.5-179,64C1858.5,100.63,1778.71,194,1728,201.51c-105.33,15.67-175.48-48.39-219.33-66.33-66-27-115.79-5.66-136.67,2.33-48.87,18.7-136.5,82.75-188,92-49.46,8.88-150.4-28.08-200-20-59.33,9.67-102.67,55.33-153.33,58.67C702.27,276.62,628.77,183.1,532,165.51c-45.83-8.33-88.34.76-114.33,8.67-30.4,9.23-63,29-105.67,63.33-30.37,24.43-72.46,80.7-100,104C178.33,370,106.67,384.18,55.67,431.18,25,459.43,0,505.51,0,505.51Z"/><path class="cls-2" d="M487,176.18s-122-6-222,129.33"/><path class="cls-3" d="M2178.33,37.51c-127.33-38.67-211.33-22-370,139.33"/><path class="cls-4" d="M2397.67,137.18c80.5,63,235,195.5,270.33,368.33H343s-26,.67-26-22.33c0-26,28-23,28-23s886.3-12.69,988.26-15.41c311.22-8.31,765.67-62.11,868.46-112.5,141-69.09,135-171,135-171s-1.5-27,13.5-34.5S2382.85,125.58,2397.67,137.18Z"/><path class="cls-5" d="M1452.83,136.51S1393,124,1282.17,201.68"/><path class="cls-6" d="M987.42,220.05s-34.25,3.13-94.5,38.88"/></g></g></svg>