<svg xmlns="http://www.w3.org/2000/svg" viewBox="0 0 2668 500.08"><defs><style>.cls-1{fill:#fff;}</style></defs><title>kapiti_island</title><g id="Layer_2" data-name="Layer 2"><g id="Layer_1-2" data-name="Layer 1"><path class="cls-1" d="M2668,500.08s-31-96.67-73-143.33c-47.92-53.25-168.43-173.17-218-206C2290.44,93.41,2171.79,3.13,2068,.08c-62.33-1.83-117.83,28.17-162.33,60.67C1858.5,95.2,1776,178.08,1728,196.08c-37.28,14-118.93-17.47-156-32-28.36-11.11-65.33-39.83-112.33-45.83-22.18-2.84-66.79,5.84-87.67,13.83-48.87,18.7-136.5,82.75-188,92-49.46,8.88-150.7-29.74-200-20-36.42,7.2-81.33,64.67-132,68-128.39,8.45-223.23-94.41-320-112-45.83-8.33-82,4.1-108,12-30.39,9.24-83.67,36.33-112,60-29.91,25-72.46,80.7-100,104-33.67,28.48-99.33,56.67-148,96-32.43,26.21-64,68-64,68Z"/></g></g></svg>