<svg xmlns="http://www.w3.org/2000/svg" viewBox="0 0 2668 500.08"><defs><style>.cls-1{fill:#168e45;}.cls-2{fill:#0f6b37;}.cls-3{fill:#67c07f;}</style></defs><title>kapiti_island_3</title><g id="Layer_2" data-name="Layer 2"><g id="Layer_1-2" data-name="Layer 1"><path class="cls-1" d="M2668,500.08s-31-96.67-73-143.33c-47.92-53.25-168.43-173.17-218-206C2290.44,93.41,2171.79,3.13,2068,.08c-62.33-1.83-117.83,28.17-162.33,60.67C1858.5,95.2,1776,178.08,1728,196.08c-37.28,14-118.93-17.47-156-32-28.36-11.11-65.33-39.83-112.33-45.83-22.18-2.84-66.79,5.84-87.67,13.83-48.87,18.7-136.5,82.75-188,92-49.46,8.88-150.7-29.74-200-20-36.42,7.2-81.33,64.67-132,68-128.39,8.45-223.23-94.41-320-112-45.83-8.33-82,4.1-108,12-30.39,9.24-83.67,36.33-112,60-29.91,25-72.46,80.7-100,104-33.67,28.48-99.33,56.67-148,96-32.43,26.21-64,68-64,68Z"/><g id="Layer_2-2" data-name="Layer 2"><path class="cls-2" d="M0,500.08H2668s-29.33-95.33-73-143.33c-50-55-149.33-157-215.33-205-53.17-38.67-204.72-149.16-236-117-27.1,27.85,150,83,144,123-4.76,31.72-90.18,44-122,48-63,8-193.7-13-198,35-5,55.44,204.88,35.37,203,91-1.31,38.56-60.45,60.55-99,59-149-6-234.73-56.73-302-99-23.06-14.49-81.11-71.94-105-85-31.18-17.05-111.16-46-146-39-45,9-69.65,42.37-65,58,11,37,124.4,37.18,122,69-2.05,27.09-43,41.12-69,49-49.89,15.1-156.88,39.3-207,25-43.1-12.3-106.92-82.07-146-104-26.08-14.64-80.12-45.78-110-47-12.64-.52-44.93,3.73-48,16-4.85,19.38,60.68,38.84,55,58-10.1,34-130.34-1.64-138,33-5.66,25.54,89,39.8,82,65-15.68,56.05-170.78,42.39-226,24-28.69-9.56-73.78-54.88-92-79-19.49-25.79-37-94-78-128-17.85-14.81-71-22-105-8-25.78,10.61-66.66,48.49-58,75,16,49,121.61,62.19,113,98-12.93,53.77-103.72,63.71-159,65-43,1-111-24-168-30C75.46,391.36,0,500.08,0,500.08Z"/><path class="cls-3" d="M2079.67,2.08c24.79,3.41-57,61-78,74.67-40,26-107.9,58.82-149,77-23.31,10.3-72.53,40.89-98,40-20.46-.72,59.14-57.28,81-75C1885,78.75,1970.67-12.92,2079.67,2.08Z"/></g><path class="cls-3" d="M450.33,168.75c-25.33-8-120.06,44.62-144,68-28.66,28-68.16,72.5-84.66,94-14.57,19,63.5-25,81-47,16.16-20.32,82-62.5,110.5-74.5C441.52,197.31,474.23,176.29,450.33,168.75Z"/></g></g></svg>