<svg xmlns="http://www.w3.org/2000/svg" viewBox="0 0 2108.41 1308.77"><defs><style>.cls-1{fill:#754c29;}.cls-2{fill:#603913;}.cls-3{fill:#e6e7e8;}.cls-4{fill:#bcbec0;}</style></defs><title>Asset 1</title><g id="Layer_2" data-name="Layer 2"><g id="Layer_1-2" data-name="Layer 1"><path class="cls-1" d="M14,1198.93l514.1-622.26c3.51-4.24,10.81-8.46,16.23-9.37l62.78-10.56c5.43-.92,12.73-5.14,16.22-9.38L1053.18,26a60.94,60.94,0,0,1,95.43,1.76l421.72,551.86,12.15,15.89,470.24,615.36c30.76,40.25,1.83,98.27-48.82,97.93L60.64,1298.62C9.32,1298.27-18.61,1238.53,14,1198.93Z"/><path class="cls-2" d="M2089.59,1177.73c-5.29-8.38-426.58-557.4-426.58-557.4a36.93,36.93,0,0,0-15.64-10.89l-61.41-19a90.52,90.52,0,0,0-19.55-3.29L627,555.42a55.78,55.78,0,0,0-19.26,3.43s-106,43.18-120.82,62c-24,30.5,2.27,74.42,2.27,74.42,2.83,4.72,7.8,12.2,11.06,16.63,0,0,22.94,31.17,41.75,43,40.5,25.5,96.93,55.44,168.92,28.44s166-121,260.5-67.5c62.89,35.61,98.17,70.5,147.5,86.5,22.08,7.16,73.82,15.23,148-14,66-26,147.84-130.5,236.5-90.5,50.58,22.82,130.84,87.84,178.17,140.5,37.16,41.35,119.33,147.29,141.35,239.05,26.21,109.19,3.32,146.29-7.35,155.62-25.8,22.57-54.29,35.08-373.63,49.87-162,7.49-456.49,20.55-456.49,20.55-5.49.24-5.49.46,0,.49,0,0,976.69,4.5,1018.42,4.8C2137.92,1309.73,2113.59,1215.73,2089.59,1177.73Z"/><path class="cls-3" d="M686.35,752.54c95.5-43.64,148.11-69.7,148.11-69.7a135.13,135.13,0,0,1,125.27,5.34l96.1,55.68a189.34,189.34,0,0,0,193.74-2.32L1371.4,667a137.52,137.52,0,0,1,165.95,17.1s78.34,48.45,85.63,49c80.69,6,79.36-48,42.48-72.49l-83.79-70.14L1149,24.21a61.64,61.64,0,0,0-96.53-1.78l-294.5,358s-24,21-49,14.5c-33.82-8.79-61,28-61,28L490.59,612.73c-13.67,20-16.25,33-1.58,61.68S590.34,796.41,686.35,752.54Z"/><path class="cls-4" d="M1692.92,655.39c-17.83-27.78-36-51-67-85s-52.5-9.33-76-26.33c-11.65-8.42-394.47-511.35-394.47-511.35,18.91,40.74,79.47,151.68,106.47,212.68,33.78,76.32,35.2,148,63,168,36,25.94,43.58-22,86,26,53,60,70.71,116.71,71.67,121,7.33,33,7.33,53.34-22.67,52.67-67.65-1.5-128,14.67-203,74.67s-137.66,68-184.66,46-61.06-44.69-128.67-80c-89.33-46.67-181.67,38.66-254.67,69.66s-104,17-134,7c-22.21-7.4-51.55-38.93-65.28-54.79,16.35,29.94,92.91,119.7,200,79.79,60.58-22.58,181.83-117.75,270.14-67.21l96.1,55.68a189.34,189.34,0,0,0,193.74-2.32L1371.4,667c50.19-28.27,118.19-24.66,165.95,17.1,55.24,48.29,92.75,61.28,127.91,50.29C1686.59,727.73,1720.21,697.92,1692.92,655.39Z"/></g></g></svg>