<svg xmlns="http://www.w3.org/2000/svg" viewBox="0 0 150.05 121.57"><defs><style>.cls-1{fill:#e6e7e8;}.cls-2,.cls-3{fill:none;stroke-linecap:round;stroke-linejoin:round;stroke-width:17px;}.cls-2{stroke:#d1d3d4;}.cls-3{stroke:#fff;}</style></defs><title>small_cloud_1</title><g id="Layer_2" data-name="Layer 2"><g id="Layer_11" data-name="Layer 11"><path class="cls-1" d="M16,37.94S18.59,6.83,49.45,1C78.7-4.47,92,13.94,92,13.94s13.83-7.83,31.17.84,14.16,27.83,14.16,27.83,13.34,4,12.67,27.33-27.33,30.67-27.33,30.67,1,11.92-14.75,17.92a40.58,40.58,0,0,1-37.5-4s-34.18,15.78-55.75-6.59C-3.55,89,8.7,68.61,8.7,68.61S-2.92,60.75.7,48.53C4,37.53,16,37.94,16,37.94Z"/><path class="cls-2" d="M18.36,99.44c0-.1,6,10.21,22.84,12.17,14.22,1.65,30.5-7.08,30.5-7.08s8.45,10.79,27.25,8.12c17.62-2.5,17.37-17.75,17.37-17.75S136,90.07,140.7,75.4"/><path class="cls-3" d="M9.13,50.28c4.07-8,15.07-6.44,15.07-6.44S22.34,8,61.78,8.53"/><path class="cls-3" d="M82.7,29.78s19.66-21.67,41.16-4.17"/></g></g></svg>