<svg xmlns="http://www.w3.org/2000/svg" viewBox="0 0 737.73 186.42"><defs><style>.cls-1{fill:#faca77;stroke:#fff;stroke-miterlimit:10;stroke-width:4px;}</style></defs><title>sparky_logo_02</title><g id="Layer_2" data-name="Layer 2"><g id="Layer_12_copy" data-name="Layer 12 copy"><path class="cls-1" d="M360.31,108.6a55.39,55.39,0,1,0-22,44.93v.22a11,11,0,0,0,22,0V109.42C360.35,109.14,360.33,108.87,360.31,108.6ZM305,142.75a33.34,33.34,0,1,1,33.33-33.33A33.37,33.37,0,0,1,305,142.75Z"/><path class="cls-1" d="M432,54.08a55.39,55.39,0,0,0-55.31,54.52c0,.27,0,.54,0,.82v44.33a11,11,0,0,0,22,0V109.82c0-.13,0-.27,0-.4a33.33,33.33,0,1,1,66.66,0,11,11,0,1,0,22,0A55.4,55.4,0,0,0,432,54.08Z"/><path class="cls-1" d="M589.38,109.4A55.3,55.3,0,0,0,611.67,65a11,11,0,1,0-22,0,33.33,33.33,0,0,1-66.65.81v-.77a11,11,0,1,0-22,0c0,.27,0,.54,0,.81v87.09c0,.27,0,.54,0,.81a11,11,0,0,0,11,11h0a11,11,0,0,0,11-11v-.81a33.33,33.33,0,0,1,66.65.81,11,11,0,0,0,22,0A55.27,55.27,0,0,0,589.38,109.4Z"/><path class="cls-1" d="M179,54.08a55.4,55.4,0,0,0-55.33,55.34v64a11,11,0,0,0,22,0V153.55A55.32,55.32,0,1,0,179,54.08Zm0,88.67a33.34,33.34,0,1,1,33.33-33.33A33.37,33.37,0,0,1,179,142.75Z"/><path class="cls-1" d="M735.73,65.17a11,11,0,1,0-22.06-.09,33.34,33.34,0,1,1-66.67,0,11,11,0,0,0-22,0,55.3,55.3,0,0,0,88.73,44.09s-.06,17-.06,17.41a33.38,33.38,0,0,1-33.34,33.34,11,11,0,0,0,0,22,55.41,55.41,0,0,0,55.1-50.32C735.62,130.79,735.73,65.17,735.73,65.17Z"/><path class="cls-1" d="M57.33,164.75A55.39,55.39,0,0,1,2,109.42a11,11,0,0,1,22,0,33.37,33.37,0,0,0,33.33,33.33c9.09,0,21.28-2.57,27.79-14.84A24.47,24.47,0,0,0,83.62,103c-5.1-7.3-13.67-10.36-24.8-8.84C33.08,97.67,19.76,86,14.1,78.69c-11.25-14.5-11.12-34-6.24-46C15.92,12.91,32.16,2,53.58,2c29.65,0,52,23.86,52,55.5a11,11,0,0,1-22,0c0-16.65-10.3-33.5-30-33.5-12.4,0-20.69,5.56-25.35,17-2.59,6.36-2.33,17,3.25,24.19,4.88,6.29,13.08,8.69,24.36,7.15,19.28-2.64,36,3.94,45.82,18.05a46.35,46.35,0,0,1,2.89,47.83C95.6,155.08,78.39,164.75,57.33,164.75Z"/></g></g></svg>