<?xml version="1.0" encoding="utf-8"?>
<!-- Generator: Adobe Illustrator 22.0.1, SVG Export Plug-In . SVG Version: 6.00 Build 0)  -->
<svg version="1.1" id="Layer_1" xmlns="http://www.w3.org/2000/svg" xmlns:xlink="http://www.w3.org/1999/xlink" x="0px" y="0px"
	 viewBox="0 0 73.4 65" style="enable-background:new 0 0 73.4 65;" xml:space="preserve">
<style type="text/css">
	.st0{fill:#D5FFBD;}
	.st1{fill:#5CA020;}
</style>
<title>Spark</title>
<circle class="st0" cx="19.7" cy="8" r="8"/>
<circle class="st0" cx="3.1" cy="20.5" r="3.1"/>
<path class="st1" d="M73.4,37.9c-0.4-9-8.5-7.2-8.5-7.2s5.7-5.6-0.2-11.3S53.3,21,53.3,21s1.3-9.8-7.5-9.1c-8.8,0.7-6.7,9.4-6.7,9.4
	s-6.3-6.5-11.9-0.5C21.9,26.5,29,32,29,32s-9.4-1.8-9.4,7.6s10.2,7.1,10.2,7.1s-6.1,4.8-0.3,10.9s11.4-1,11.4-1s-1.7,8.5,7.6,8.3
	c9.4-0.2,7-9.5,7-9.5s7,7.2,11.9,0.8c4.9-6.4-1.5-10.7-1.5-10.7S73.8,47,73.4,37.9z M47.3,48c-5.3,0-9.7-4.4-9.7-9.7
	s4.4-9.7,9.7-9.7S57,33,57,38.4S52.6,48,47.3,48z"/>
</svg>
