<?xml version="1.0" encoding="utf-8"?>
<!-- Generator: Adobe Illustrator 22.0.1, SVG Export Plug-In . SVG Version: 6.00 Build 0)  -->
<svg version="1.1" id="Layer_1" xmlns="http://www.w3.org/2000/svg" xmlns:xlink="http://www.w3.org/1999/xlink" x="0px" y="0px"
	 viewBox="0 0 200.4 283.5" style="enable-background:new 0 0 200.4 283.5;" xml:space="preserve">
<style type="text/css">
	.st0{fill:#D5FFBD;}
	.st1{fill:#5CA020;}
	.st2{fill:#427214;}
</style>
<title>Spark</title>
<ellipse transform="matrix(0.7992 -0.6011 0.6011 0.7992 -8.9638 50.3642)" class="st0" cx="70.9" cy="38.6" rx="10.4" ry="5.7"/>
<circle class="st0" cx="54.3" cy="51.1" r="3.1"/>
<ellipse transform="matrix(0.2669 -0.9637 0.9637 0.2669 -42.8149 190.1705)" class="st0" cx="103.6" cy="123.2" rx="3.5" ry="6.4"/>
<path class="st1" d="M123.9,69.2c-0.4-9.3-8.8-7.4-8.8-7.4s5.9-5.8-0.2-11.7s-11.8,1.7-11.8,1.7s1.3-10.1-7.8-9.4
	c-9.1,0.7-6.9,9.7-6.9,9.7s-6.5-6.7-12.3-0.5C70.7,57.4,78,63.1,78,63.1s-9.7-1.9-9.7,7.9s10.5,7.3,10.5,7.3s-6.3,5-0.3,11.3
	s11.8-1,11.8-1s-1.8,8.8,7.9,8.6c9.7-0.2,7.2-9.8,7.2-9.8s7.2,7.4,12.3,0.8c5.1-6.6-1.5-11.1-1.5-11.1S124.3,78.6,123.9,69.2z
	 M96.9,79.7c-5.5,0-10-4.5-10-10s4.5-10,10-10s10,4.5,10,10S102.4,79.7,96.9,79.7z"/>
<path class="st2" d="M122.5,64.3c0.2,2.1-0.1,7.4-2.1,9.3c-3.1,2.8-7.4,2.6-7.4,2.6s6.2,6,0.8,9.6c-3.3,2.2-9.6-0.3-9.6-0.3
	s-0.7,8.5-8,7.3c-4.5-0.8-5.4-6.1-5.4-6.1s-5.1,5.5-12,3.3c5.9,5.8,11.5-1.3,11.5-1.3s-1.8,8.8,7.9,8.6s7.2-9.8,7.2-9.8
	s7.2,7.4,12.3,0.8c5.1-6.6-1.5-11.1-1.5-11.1s8.1,1.5,7.7-7.9C123.8,67,123.3,65.4,122.5,64.3z"/>
<path class="st2" d="M86.9,69.7c0-5.5,4.5-10,10-10c1.5,0,2.9,0.3,4.2,1c-2.2-1.6-7-2.9-10.7-0.3c-3.8,2.7-4.4,7.1-3.4,9.9
	C86.9,70.1,86.9,69.9,86.9,69.7z"/>
</svg>
