<?xml version="1.0" encoding="utf-8"?>
<!-- Generator: Adobe Illustrator 22.0.1, SVG Export Plug-In . SVG Version: 6.00 Build 0)  -->
<svg version="1.1" id="Layer_1" xmlns="http://www.w3.org/2000/svg" xmlns:xlink="http://www.w3.org/1999/xlink" x="0px" y="0px"
	 viewBox="0 0 200.4 283.5" style="enable-background:new 0 0 200.4 283.5;" xml:space="preserve">
<style type="text/css">
	.st0{fill:none;}
	.st1{fill:#808285;}
	.st2{fill:#939598;}
</style>
<title>Spark_Exposed</title>
<path class="st0" d="M91,87.1c-0.1,0-0.2,0-0.3,0c0.7,0.1,1.5,0.2,2.2,0.3H93c-0.1,0-0.1,0-0.2,0L91,87.1z"/>
<path class="st1" d="M119.4,67c3,5.3,1.1,12.1-4.2,15.1c-1,0.6-2.1,1-3.3,1.2c3.2-4.5,4.3-10.1,3-15.4c0,0.1,0,0.2,0,0.3
	c0,0,0,0.1,0,0.1c0,0.3-0.1,0.6-0.1,0.9c0,0.3-0.1,0.6-0.1,1c-0.1,0.3-0.1,0.7-0.2,1c-0.1,0.3-0.1,0.6-0.2,0.9
	c-0.1,0.3-0.2,0.7-0.3,1c-0.1,0.3-0.2,0.6-0.3,0.9c-0.1,0.3-0.2,0.6-0.4,0.9c-0.1,0.3-0.2,0.6-0.4,0.8c-0.1,0.3-0.3,0.6-0.5,0.9
	c-0.1,0.3-0.3,0.5-0.4,0.8c-0.2,0.3-0.4,0.6-0.5,0.8c-0.2,0.3-0.3,0.5-0.5,0.8c-0.2,0.3-0.4,0.5-0.6,0.8c-0.2,0.2-0.4,0.5-0.6,0.7
	c-0.2,0.3-0.5,0.5-0.7,0.7c-0.2,0.2-0.4,0.4-0.6,0.6c-0.2,0.2-0.5,0.4-0.8,0.7c-0.2,0.2-0.4,0.4-0.7,0.6c-0.3,0.2-0.6,0.4-0.8,0.6
	c-0.2,0.2-0.5,0.4-0.7,0.5c-0.3,0.2-0.6,0.4-0.9,0.5c-0.3,0.1-0.5,0.3-0.8,0.4c-0.3,0.2-0.6,0.3-1,0.5c-0.3,0.1-0.5,0.3-0.8,0.4
	c-0.3,0.1-0.7,0.3-1,0.4c-0.3,0.1-0.5,0.2-0.8,0.3c-0.4,0.1-0.8,0.2-1.1,0.3c-0.3,0.1-0.5,0.1-0.8,0.2c-0.4,0.1-0.9,0.1-1.3,0.2
	c-0.2,0-0.4,0.1-0.7,0.1c-0.7,0.1-1.3,0.1-2,0.1c-0.5,0-1,0-1.5-0.1h0h-0.1c-0.7-0.1-1.5-0.2-2.2-0.3c-0.6,0-1.1,0.2-1.6,0.6
	c-0.1,0.1-0.2,0.2-0.4,0.3s-0.2,0.2-0.3,0.3c-0.4,0.3-0.8,0.7-1.3,0.9c-2.3,1.5-5,2.3-7.8,2.3c-0.4,0-0.8,0-1.2-0.1
	c-0.1,0-0.3,0-0.4-0.1c-0.3,0-0.5-0.1-0.8-0.1c-0.2,0-0.3-0.1-0.5-0.1c-0.2,0-0.5-0.1-0.7-0.2c-0.2,0-0.3-0.1-0.5-0.1
	c-0.2-0.1-0.4-0.1-0.6-0.2c-0.2-0.1-0.3-0.1-0.5-0.2c-0.2-0.1-0.4-0.2-0.6-0.3c-0.2-0.1-0.3-0.2-0.5-0.2c-0.2-0.1-0.4-0.2-0.6-0.3
	c-0.2-0.1-0.3-0.2-0.5-0.3c-0.2-0.1-0.4-0.2-0.5-0.3c-0.1-0.1-0.3-0.2-0.4-0.3c-0.1-0.1-0.2-0.2-0.3-0.2c0,0-0.1-0.1-0.1-0.1
	c-0.1-0.1-0.2-0.1-0.3-0.2c3.9,6.1,11.9,7.9,18,4c0.8-0.5,1.5-1.1,2.1-1.7c6.5,2,13.5,0.4,18.5-4.1c5.6,2.5,12.1,0,14.6-5.5
	C126,75.9,124.1,69.9,119.4,67L119.4,67z"/>
<path class="st1" d="M100.6,61.7c-2.5,1.5-5.5,2.1-8.4,1.6c0.4,0.2,0.9,0.3,1.3,0.4c0.1,0,0.2,0,0.2,0c0.4,0.1,0.8,0.2,1.2,0.2
	c0,0,0.1,0,0.1,0c0.4,0,0.9,0.1,1.3,0.1h0c0.5,0,0.9,0,1.4-0.1l0,0c2-0.3,3.9-1.1,5.5-2.4c3.9-0.7,8,0.7,10.8,3.5l0,0
	c-1.5-3.6-4-6.7-7.2-8.9c1-3.4,0.4-7.1-1.8-9.9C107.7,51.7,105.8,58.4,100.6,61.7z"/>
<path class="st2" d="M71,88.8c0.1,0.1,0.3,0.2,0.4,0.3c0.2,0.1,0.4,0.2,0.5,0.3c0.2,0.1,0.3,0.2,0.5,0.3c0.2,0.1,0.4,0.2,0.6,0.3
	c0.2,0.1,0.3,0.2,0.5,0.2c0.2,0.1,0.4,0.2,0.6,0.3c0.2,0.1,0.3,0.1,0.5,0.2c0.2,0.1,0.4,0.1,0.6,0.2c0.2,0,0.3,0.1,0.5,0.1
	c0.2,0.1,0.5,0.1,0.7,0.2c0.2,0,0.3,0.1,0.5,0.1c0.3,0,0.5,0.1,0.8,0.1c0.1,0,0.3,0,0.4,0.1c0.4,0,0.8,0.1,1.2,0.1
	c2.8,0,5.5-0.8,7.8-2.3c0.4-0.3,0.9-0.6,1.3-0.9c0.1-0.1,0.2-0.2,0.3-0.3s0.2-0.2,0.4-0.3c0.4-0.4,1-0.6,1.6-0.6c0.1,0,0.2,0,0.3,0
	l1.8,0.3c0.1,0,0.1,0,0.2,0h0c0.5,0,1,0.1,1.5,0.1c0.7,0,1.4,0,2-0.1c0.2,0,0.4-0.1,0.7-0.1c0.4-0.1,0.9-0.1,1.3-0.2
	c0.3-0.1,0.5-0.1,0.8-0.2c0.4-0.1,0.8-0.2,1.1-0.3c0.3-0.1,0.5-0.2,0.8-0.3c0.3-0.1,0.7-0.2,1-0.4c0.3-0.1,0.5-0.2,0.8-0.4
	c0.3-0.1,0.7-0.3,1-0.5c0.3-0.1,0.5-0.3,0.8-0.4c0.3-0.2,0.6-0.3,0.9-0.5c0.2-0.2,0.5-0.3,0.7-0.5c0.3-0.2,0.6-0.4,0.8-0.6
	c0.2-0.2,0.4-0.4,0.7-0.6c0.3-0.2,0.5-0.4,0.8-0.7c0.2-0.2,0.4-0.4,0.6-0.6c0.2-0.2,0.5-0.5,0.7-0.7c0.2-0.2,0.4-0.5,0.6-0.7
	c0.2-0.3,0.4-0.5,0.6-0.8c0.2-0.2,0.3-0.5,0.5-0.8c0.2-0.3,0.4-0.6,0.5-0.8c0.2-0.3,0.3-0.5,0.4-0.8c0.2-0.3,0.3-0.6,0.5-0.9
	c0.1-0.3,0.2-0.6,0.4-0.8c0.1-0.3,0.3-0.6,0.4-0.9c0.1-0.3,0.2-0.6,0.3-0.9c0.1-0.3,0.2-0.6,0.3-1c0.1-0.3,0.1-0.6,0.2-0.9
	c0.1-0.3,0.1-0.7,0.2-1c0-0.3,0.1-0.6,0.1-1c0-0.3,0.1-0.6,0.1-0.9c0,0,0-0.1,0-0.1c0-0.1,0-0.2,0-0.3c1.2,5.3,0.1,10.9-3,15.4
	c6-1.2,9.9-7,8.7-13c-0.2-1.1-0.6-2.3-1.2-3.3c-1.6-1-3.4-1.5-5.2-1.6c-0.1-0.1-0.1-0.2-0.2-0.4c-2.8-2.9-6.8-4.2-10.8-3.5
	c-1.6,1.3-3.5,2.2-5.5,2.4l0,0C97.3,64,96.8,64,96.3,64h0c-0.4,0-0.9,0-1.3-0.1c0,0-0.1,0-0.1,0c-0.4,0-0.8-0.1-1.2-0.2
	c-0.1,0-0.2,0-0.2,0c-0.4-0.1-0.9-0.2-1.3-0.4c6.5,1.2,12.7-3.1,13.9-9.6c0.5-2.5,0.1-5.1-1.1-7.4c-3.7-4.8-10.7-5.8-15.5-2
	c-3.7,2.8-5.2,7.6-3.9,12c-4.1,2.7-7,6.9-8.1,11.6c-0.2,0.7-0.7,1.3-1.3,1.5c-6.6,2.9-9.7,10.5-6.8,17.1c0.2,0.5,0.5,1,0.8,1.5
	c0.1,0.2,0.3,0.4,0.5,0.6c0,0,0.1,0.1,0.1,0.1C70.8,88.7,70.9,88.7,71,88.8z"/>
</svg>
