<svg xmlns="http://www.w3.org/2000/svg" viewBox="0 0 349.45 689.63"><defs><style>.cls-1,.cls-2{fill:#a3c6e2;stroke-miterlimit:10;}.cls-1{stroke:#603913;stroke-width:50px;}.cls-2{stroke:#3c2415;stroke-width:17px;}.cls-3{fill:#39b54a;}.cls-4{fill:#009444;}</style></defs><title>Tree_1</title><g id="Layer_2" data-name="Layer 2"><g id="Layer_4" data-name="Layer 4"><line class="cls-1" x1="174.25" y1="398.63" x2="174.25" y2="689.63"/><line class="cls-2" x1="190.58" y1="398.3" x2="190.58" y2="689.3"/><path class="cls-3" d="M146.83,200,4.55,453.79c-12.88,22.14,3.14,49.91,28.76,49.84l283-.76a33.17,33.17,0,0,0,29.25-48.63l-140.73-253C192.71,178.15,159.94,177.47,146.83,200Z"/><path class="cls-4" d="M34.83,503.53c31.11-.11,281.62-.75,281.62-.75a33,33,0,0,0,29.12-48.39l-131-235.51,81.59,208.55s10.55,30.08-20.05,34.3S60,452.23,30.18,460.68C-3.6,468.33,3.72,503.64,34.83,503.53Z"/><path class="cls-3" d="M153.1,97.54,40.6,298.22a26.22,26.22,0,0,0,22.74,39.41l223.78-.6a26.23,26.23,0,0,0,23.14-38.45L199,98.5A26.23,26.23,0,0,0,153.1,97.54Z"/><path class="cls-4" d="M62.82,337.57c24.78-.08,224.3-.6,224.3-.6a26.29,26.29,0,0,0,23.19-38.54L206,110.86,271,277s8.4,24-16,27.32-172.12-7.56-195.87-.84C32.22,309.54,38.05,337.66,62.82,337.57Z"/><path class="cls-3" d="M156.28,10.37,66.86,169.87A20.85,20.85,0,0,0,84.93,201.2l177.88-.48a20.85,20.85,0,0,0,18.39-30.56l-88.45-159A20.85,20.85,0,0,0,156.28,10.37Z"/><path class="cls-4" d="M84.93,201.2c19.65-.07,177.88-.48,177.88-.48a20.85,20.85,0,0,0,18.39-30.56L198.47,21.41,250,153.13s6.66,19-12.67,21.67-136.5-6-155.33-.67C60.66,179,65.29,201.27,84.93,201.2Z"/></g></g></svg>