<svg xmlns="http://www.w3.org/2000/svg" xmlns:xlink="http://www.w3.org/1999/xlink" viewBox="0 0 349.45 698.63"><defs><style>.cls-1{fill:#5f3916;}.cls-2{fill:#3c2415;}.cls-3{fill:url(#linear-gradient);}.cls-4{fill:none;stroke:#bddea8;stroke-linecap:round;stroke-miterlimit:10;stroke-width:20px;}.cls-5{fill:#206432;}</style><linearGradient id="linear-gradient" x1="40.33" y1="47.4" x2="219.69" y2="540.19" gradientUnits="userSpaceOnUse"><stop offset="0" stop-color="#5dbb57"/><stop offset="0.22" stop-color="#53b151"/><stop offset="0.59" stop-color="#399742"/><stop offset="1" stop-color="#14732c"/></linearGradient></defs><title>tree_02</title><g id="Layer_2" data-name="Layer 2"><g id="Layer_2-2" data-name="Layer 2"><rect class="cls-1" x="152.75" y="453.13" width="49.5" height="245.5"/><path class="cls-2" d="M184.58,698.63h17.67V453.13h-49.5l0,66.33H174a10.59,10.59,0,0,1,10.58,10.59V698.63Z"/><path class="cls-3" d="M345.58,454.24,280.4,337.05l6.72,0a26.23,26.23,0,0,0,23.14-38.45l-54.42-97.84,7,0a20.85,20.85,0,0,0,18.39-30.56l-88.45-159a20.85,20.85,0,0,0-36.47-.76L66.86,169.87A20.85,20.85,0,0,0,84.93,201.2l10.07,0L40.6,298.22a26.22,26.22,0,0,0,22.74,39.41l6.34,0L4.55,453.79c-12.88,22.14,3.14,49.91,28.76,49.84l283-.76A33.17,33.17,0,0,0,345.58,454.24Z"/><line class="cls-4" x1="157.91" y1="27.46" x2="92.25" y2="144.63"/><line class="cls-4" x1="84.25" y1="240.88" x2="51.75" y2="298.38"/><line class="cls-4" x1="57" y1="380.38" x2="13.5" y2="458.13"/><path class="cls-5" d="M191.25,201.3a10,10,0,0,1,0-20l67.7-.34a3.16,3.16,0,0,0,3-4.58l-34.6-62a10,10,0,1,1,17.46-9.75l35.28,63.22c4.3,7.33,4.54,15.72.63,22.49S269.28,201.1,260.53,201Z"/><path class="cls-5" d="M153.25,337.21a10,10,0,0,1,0-20l128.66-.33c9.79-.25,11.88-7,7.75-14.18L254.78,240a10,10,0,0,1,17.47-9.74L309,296.38a26.74,26.74,0,0,1,.87,27.63c-3.92,6.78-11.83,13-23.58,13Z"/><path class="cls-5" d="M87,503.47a10,10,0,0,1,0-20l233.19-.84c7.29-.33,12.38-8.6,8.5-17.43,0-.09-46.73-84.21-46.73-84.21a10,10,0,1,1,17.46-9.75l47.4,85.39c4.58,9.83,2.58,22.58-1.42,29.08-5.45,8.87-14.08,16.5-26.25,17.09L87,503.47Z"/></g></g></svg>