<svg xmlns="http://www.w3.org/2000/svg" viewBox="0 0 5049.08 297.14"><defs><style>.cls-1{fill:#1b75bc;}</style></defs><title>water_1</title><g id="Layer_2" data-name="Layer 2"><g id="Layer_1-2" data-name="Layer 1"><path class="cls-1" d="M4972.88,77.24C4962.24,2.81,4899.55,0,4891.35,0c-9.75,0-70.89,2.81-81.52,77.24s-76.35,70.46-76.35,70.46-65.72,4-76.35-70.46S4583.81,0,4575.61,0c-9.76,0-70.89,2.81-81.53,77.24-10.52,73.67-74.85,70.54-76.17,70.46h0c-1.32.08-65.65,3.21-76.17-70.46C4331.08,2.81,4268.39,0,4260.19,0c-9.76,0-70.89,2.81-81.53,77.24s-76.35,70.46-76.35,70.46-65.71,4-76.34-70.46S3952.64,0,3944.44,0c-9.76,0-70.89,2.81-81.52,77.24-10.5,73.5-74.56,70.55-76.16,70.46h0c-1.61.09-65.67,3-76.17-70.46C3699.92,2.81,3637.23,0,3629,0c-9.76,0-70.89,2.81-81.52,77.24s-76.35,70.46-76.35,70.46-65.72,4-76.35-70.46S3321.48,0,3313.28,0c-9.75,0-70.89,2.81-81.52,77.24-10.52,73.67-74.85,70.54-76.17,70.46h0c-1.32.08-65.65,3.21-76.17-70.46C3068.76,2.81,3006.06,0,2997.86,0c-9.75,0-70.89,2.81-81.52,77.24S2840,147.7,2840,147.7s-65.71,4-76.35-70.46S2690.32,0,2682.12,0c-9.76,0-70.89,2.81-81.52,77.24-10.23,71.59-71.27,70.65-75.92,70.47h-.29c-4.64.18-65.68,1.12-75.91-70.47C2437.85,2.81,2375.16,0,2367,0c-9.76,0-70.89,2.81-81.52,77.24s-76.35,70.46-76.35,70.46-65.72,4-76.35-70.46S2059.41,0,2051.21,0c-9.75,0-70.89,2.81-81.52,77.24-10.52,73.67-74.85,70.54-76.17,70.46h0c-1.32.08-65.65,3.21-76.17-70.46C1806.68,2.81,1744,0,1735.79,0c-9.75,0-70.89,2.81-81.52,77.24s-76.35,70.46-76.35,70.46-65.72,4-76.35-70.46S1428.25,0,1420.05,0c-9.76,0-70.89,2.81-81.53,77.24-10.49,73.5-74.55,70.55-76.16,70.46h0c-1.6.09-65.66,3-76.16-70.46C1175.53,2.81,1112.84,0,1104.64,0c-9.76,0-70.89,2.81-81.53,77.24s-76.35,70.46-76.35,70.46-65.71,4-76.35-70.46S797.09,0,788.89,0C779.13,0,718,2.81,707.37,77.24c-10.53,73.67-74.85,70.54-76.17,70.46h0c-1.33.08-65.65,3.21-76.18-70.46C544.36,2.81,481.67,0,473.47,0,463.71,0,402.58,2.81,392,77.24S315.6,147.7,315.6,147.7s-65.72,4-76.35-70.46S165.93,0,157.73,0C148,0,86.83,2.81,76.2,77.24S0,147.7,0,147.7V297.14H5049.08V147.7S4983.51,151.67,4972.88,77.24Z"/></g></g></svg>