<svg xmlns="http://www.w3.org/2000/svg" viewBox="0 0 55.61 54.84"><defs><style>.cls-1{fill:#5ca020;}.cls-2{fill:#427214;}</style></defs><title>Spark_Exposed_2</title><g id="Layer_2" data-name="Layer 2"><g id="Layer_1-2" data-name="Layer 1"><path class="cls-1" d="M55.6,26.83c-.4-9.3-8.8-7.4-8.8-7.4s5.9-5.8-.2-11.7-11.8,1.7-11.8,1.7S36.1-.67,27,0s-6.9,9.7-6.9,9.7S13.6,3,7.8,9.23C2.4,15,9.7,20.73,9.7,20.73S0,18.83,0,28.63s10.5,7.3,10.5,7.3-6.3,5-.3,11.3,11.8-1,11.8-1-1.8,8.8,7.9,8.6S37.1,45,37.1,45s7.2,7.4,12.3.8-1.5-11.1-1.5-11.1S56,36.23,55.6,26.83Zm-27,10.5a10,10,0,1,1,10-10A10,10,0,0,1,28.6,37.33Z"/><path class="cls-2" d="M54.17,21.92c.22,2.1-.08,7.42-2.1,9.28a11.2,11.2,0,0,1-7.37,2.6s6.19,6,.75,9.58c-3.3,2.17-9.58-.33-9.58-.33s-.73,8.55-8,7.27c-4.54-.79-5.37-6.1-5.37-6.1s-5.06,5.48-12,3.29C16.38,53.3,22,46.23,22,46.23s-1.8,8.8,7.9,8.6S37.1,45,37.1,45s7.2,7.4,12.3.8-1.5-11.1-1.5-11.1,8.1,1.5,7.7-7.9A9.17,9.17,0,0,0,54.17,21.92Z"/><path class="cls-2" d="M18.6,27.33a10,10,0,0,1,10-10,9.82,9.82,0,0,1,4.22,1c-2.19-1.62-7-2.93-10.75-.28a8.85,8.85,0,0,0-3.44,9.93C18.62,27.74,18.6,27.54,18.6,27.33Z"/></g></g></svg>