<svg id="Layer_1" data-name="Layer 1" xmlns="http://www.w3.org/2000/svg" viewBox="0 0 200.43 283.464"><defs><style>.cls-1{fill:none;}.cls-2{fill:#df6e1f;}.cls-3{fill:#ff9c39;}</style></defs><title>Spark_Exposed</title><path class="cls-1" d="M91,87.1a2.246,2.246,0,0,0-.3-.012,20.707,20.707,0,0,0,2.219.3l.054,0c-.051,0-.1-.01-.153-.017Z"/><path class="cls-2" d="M119.381,66.981a11.066,11.066,0,0,1-7.47,16.291,19.063,19.063,0,0,0,3.022-15.383c0,.1-.021.193-.027.291,0,.027.009.054.008.081-.018.289-.065.569-.095.854-.033.319-.058.64-.105.955-.052.342-.127.675-.195,1.012-.063.308-.117.62-.194.923-.084.332-.19.653-.289.978-.091.3-.173.6-.277.887-.113.318-.249.626-.378.937-.117.284-.226.571-.355.848-.143.3-.306.6-.463.893-.142.268-.275.542-.429.8-.17.289-.36.564-.544.845-.165.251-.321.508-.5.752-.2.273-.412.529-.621.791-.186.234-.364.474-.56.7-.221.254-.461.491-.7.733-.2.214-.4.435-.616.639-.246.234-.509.449-.766.671-.223.192-.437.393-.668.576-.267.211-.551.4-.828.6-.24.17-.471.351-.718.511-.289.188-.594.353-.893.526-.252.146-.5.3-.756.439-.313.164-.64.3-.963.451-.26.12-.513.252-.779.36-.34.139-.692.25-1.04.37-.263.092-.52.2-.788.277-.37.112-.753.193-1.133.284-.257.062-.508.139-.77.19-.427.085-.865.136-1.3.194-.223.029-.441.076-.666.1q-1,.1-2.026.1c-.5,0-.991-.024-1.48-.06l-.045,0-.054,0a20.707,20.707,0,0,1-2.219-.3,2.181,2.181,0,0,0-1.556.572c-.117.11-.245.209-.365.315s-.217.192-.329.284a14,14,0,0,1-1.26.942,14.215,14.215,0,0,1-7.8,2.327c-.418,0-.832-.019-1.241-.054-.136-.012-.27-.036-.405-.052-.27-.031-.54-.06-.805-.106-.16-.028-.316-.068-.474-.1-.236-.049-.472-.1-.7-.156-.165-.044-.326-.1-.489-.147-.217-.066-.436-.129-.649-.2-.165-.059-.325-.127-.488-.192-.2-.081-.408-.16-.608-.25-.161-.073-.318-.154-.476-.233-.193-.095-.385-.19-.572-.294-.156-.087-.308-.18-.46-.273-.182-.109-.362-.219-.538-.336-.149-.1-.294-.2-.439-.31-.109-.078-.223-.15-.329-.231-.029-.022-.052-.05-.079-.074-.086-.067-.178-.127-.262-.2a13.052,13.052,0,0,0,20.16,2.276,19.2,19.2,0,0,0,18.505-4.1,11.063,11.063,0,0,0,10.341-19.511Z"/><path class="cls-2" d="M100.56,61.68a11.888,11.888,0,0,1-8.371,1.585,11,11,0,0,0,1.3.408c.076.019.153.029.228.046a11,11,0,0,0,1.153.206c.047.006.094.008.141.013A11.146,11.146,0,0,0,96.3,64h.035a11.406,11.406,0,0,0,1.391-.1h0a10.622,10.622,0,0,0,5.516-2.422A12.26,12.26,0,0,1,114,65h0a19.3,19.3,0,0,0-7.217-8.859,11.038,11.038,0,0,0-1.8-9.923A11.941,11.941,0,0,1,100.56,61.68Z"/><path class="cls-3" d="M71.045,88.816c.145.105.29.21.439.31.176.117.356.227.538.336.152.093.3.186.46.273.187.1.379.2.572.294.158.079.315.16.476.233.2.09.4.169.608.25.163.065.323.133.488.192.213.075.432.138.649.2.163.049.324.1.489.147.232.06.468.107.7.156.158.033.314.073.474.1.265.046.535.075.805.106.135.016.269.04.405.052.409.035.823.054,1.241.054A14.215,14.215,0,0,0,87.2,89.2a14,14,0,0,0,1.26-.942c.112-.092.22-.188.329-.284s.248-.2.365-.315a2.181,2.181,0,0,1,1.556-.572,2.246,2.246,0,0,1,.3.012l1.825.277c.051.007.1.012.153.017l.045,0c.489.036.982.06,1.48.06q1.026,0,2.026-.1c.225-.022.443-.069.666-.1.437-.058.875-.109,1.3-.194.262-.051.513-.128.77-.19.38-.091.763-.172,1.133-.284.268-.08.525-.185.788-.277.348-.12.7-.231,1.04-.37.266-.108.519-.24.779-.36.323-.148.65-.287.963-.451.259-.135.5-.293.756-.439.3-.173.6-.338.893-.526.247-.16.478-.341.718-.511.277-.2.561-.388.828-.6.231-.183.445-.384.668-.576.257-.222.52-.437.766-.671.214-.2.411-.425.616-.639.234-.242.474-.479.7-.733.2-.225.374-.465.56-.7.209-.262.425-.518.621-.791.176-.244.332-.5.5-.752.184-.281.374-.556.544-.845.154-.261.287-.535.429-.8.157-.3.32-.588.463-.893.129-.277.238-.564.355-.848.129-.311.265-.619.378-.937.1-.291.186-.59.277-.887.1-.325.2-.646.289-.978.077-.3.131-.615.194-.923.068-.337.143-.67.195-1.012.047-.315.072-.636.105-.955.03-.285.077-.565.095-.854,0-.027-.008-.054-.008-.081.006-.1.023-.193.027-.291a19.063,19.063,0,0,1-3.022,15.383,11.066,11.066,0,0,0,7.47-16.291,11.008,11.008,0,0,0-5.189-1.63c-.061-.121-.127-.237-.191-.355a12.26,12.26,0,0,0-10.76-3.519A10.622,10.622,0,0,1,97.725,63.9h0a11.406,11.406,0,0,1-1.391.1H96.3a11.146,11.146,0,0,1-1.292-.065c-.047-.005-.094-.007-.141-.013a11,11,0,0,1-1.153-.206c-.075-.017-.152-.027-.228-.046a11,11,0,0,1-1.3-.408,11.926,11.926,0,0,0,12.791-17.05A11.067,11.067,0,0,0,85.6,56.142a19.272,19.272,0,0,0-8.114,11.612,2.251,2.251,0,0,1-1.306,1.53,13.046,13.046,0,0,0-6.031,18.662,2.266,2.266,0,0,0,.491.565c.027.024.05.052.079.074C70.822,88.666,70.936,88.738,71.045,88.816Z"/></svg>