<svg xmlns="http://www.w3.org/2000/svg" viewBox="0 0 733.31 196.08"><defs><style>.cls-1{fill:#faca77;stroke:#fff;stroke-miterlimit:10;stroke-width:5px;}</style></defs><title>sparky_logo_03</title><g id="Layer_2" data-name="Layer 2"><g id="Layer_12" data-name="Layer 12"><path class="cls-1" d="M358.4,111.85a56.83,56.83,0,1,0-56.82,57.65h44.36a12.5,12.5,0,0,0,12.5-12.5V112.67C358.44,112.39,358.41,112.12,358.4,111.85ZM301.58,144.5a31.84,31.84,0,1,1,31.84-31.83A31.87,31.87,0,0,1,301.58,144.5Z"/><path class="cls-1" d="M175.58,55.83a56.9,56.9,0,0,0-56.83,56.84v64a12.48,12.48,0,0,0,12.51,12.65,12.22,12.22,0,0,0,10.24-5.49c.91-1.21,11.3-14.32,33.45-14.32l.35,0h.28a56.84,56.84,0,1,0,0-113.67Zm0,88.67a31.84,31.84,0,1,1,31.84-31.83A31.87,31.87,0,0,1,175.58,144.5Z"/><path class="cls-1" d="M730.81,68.42a12.53,12.53,0,1,0-25.06-.09,31.84,31.84,0,1,1-63.67,0,12.5,12.5,0,0,0-25,0,56.91,56.91,0,0,0,56.84,56.84c2.21,0,8.92.16,10.21.16a21.63,21.63,0,0,1,0,43.25,12.5,12.5,0,0,0,0,25,46.69,46.69,0,0,0,46.39-42,12.34,12.34,0,0,0,.29-2.67Z"/><path class="cls-1" d="M428.58,55.88a56.89,56.89,0,0,0-56.81,56c0,.27,0,.54,0,.82V157a12.5,12.5,0,0,0,25,0V113.11c0-.13,0-.26,0-.4a31.84,31.84,0,0,1,63.67,0,12.5,12.5,0,0,0,25,0A56.9,56.9,0,0,0,428.58,55.88Z"/><path class="cls-1" d="M587.39,112.69a56.75,56.75,0,0,0,21.36-44.36,12.5,12.5,0,0,0-25,0,31.83,31.83,0,0,1-63.65.81v-.76a12.35,12.35,0,0,0-1.51-6,12.5,12.5,0,0,0-23.51,5.91c0,.27,0,.54,0,.81v87.09c0,.27,0,.54,0,.81a12.5,12.5,0,0,0,12.5,12.5h0A12.49,12.49,0,0,0,520.1,157v-.81a31.83,31.83,0,0,1,63.65.81,12.5,12.5,0,0,0,25,0A56.73,56.73,0,0,0,587.39,112.69Z"/><path class="cls-1" d="M54,66.5H51.21A19.5,19.5,0,1,1,70.71,47a12.5,12.5,0,0,0,25,0,44.5,44.5,0,1,0-44.5,44.5H54A26.46,26.46,0,1,1,27.5,118a12.5,12.5,0,1,0-25,0A51.46,51.46,0,1,0,54,66.5Z"/></g></g></svg>