<?xml version="1.0" encoding="utf-8"?>
<!-- Generator: Adobe Illustrator 22.0.1, SVG Export Plug-In . SVG Version: 6.00 Build 0)  -->
<svg version="1.1" id="Layer_1" xmlns="http://www.w3.org/2000/svg" xmlns:xlink="http://www.w3.org/1999/xlink" x="0px" y="0px"
	 viewBox="0 0 841.9 595.3" style="enable-background:new 0 0 841.9 595.3;" xml:space="preserve">
<style type="text/css">
	.st0{fill:#DADBDC;}
	.st1{fill:#C0C2C4;}
	.st2{fill:#CCCCCB;}
</style>
<path class="st0" d="M589.2,202.2c2.5-7.2,3.8-14.9,3.8-22.9c0-39-31.6-70.6-70.6-70.6c-3.5,0-6.9,0.3-10.2,0.7
	c-9.1-35.5-41.3-61.8-79.6-61.8c-35.5,0-65.7,22.5-77.2,54c-7.3-3.4-15.5-5.3-24.1-5.3c-31.7,0-57.5,25.7-57.5,57.5
	c0,9,2.1,17.6,5.8,25.2c-22.6,10.9-38.3,34.1-38.3,60.9c0,34.7,26.1,63.2,59.8,67.1c7.8,21.8,28.7,37.5,53.2,37.5
	c14.1,0,27-5.2,36.9-13.8c13.1,8.7,28.8,13.8,45.6,13.8c20.7,0,39.6-7.6,54.1-20.2c8.1,2.6,16.6,4,25.6,4
	c46.4,0,83.9-37.6,83.9-83.9C600.5,228.9,596.4,214.5,589.2,202.2z"/>
<path class="st0" d="M443.1,384.6c-3.1-16.4-18.9-27.2-35.3-24.1c-5.8,1.1-11,3.8-15,7.6c-7.9-7.4-19.1-11.1-30.5-8.9
	c-19,3.6-31.5,21.9-27.9,41c2.9,15.4,15.5,26.5,30.3,28.3c0.1,1.4,0.2,2.9,0.5,4.4c3,16.1,18.6,26.7,34.7,23.7
	c16.1-3,26.7-18.6,23.7-34.7c-0.2-1-0.4-2-0.7-2.9C437.1,414.2,446,399.6,443.1,384.6z"/>
<path class="st1" d="M589.3,202.2c0,0,11.2,79.3-43.3,95.5C504.3,310,477.5,279,477.5,279s-3.2,35.9-39.5,40
	c-35.5,4-49.8-26-49.8-26s-10.1,40.7-48.2,26.4C307,307,309.5,274,309.5,274s-24.9,11.5-44.5-3.5c-24.1-18.5-23.2-38.6-23.2-38.6
	c-4.3,41.3,25.8,71.1,59.4,75c7.8,21.8,28.7,37.5,53.2,37.5c14.1,0,27-5.2,36.9-13.8c13.1,8.7,28.8,13.8,45.6,13.8
	c20.7,0,39.6-7.6,54.1-20.2c8.1,2.6,16.6,4,25.6,4c46.4,0,83.9-37.6,83.9-83.9C600.6,228.9,596.5,214.5,589.3,202.2"/>
<path class="st2" d="M333.9,392.5c-0.1,22.2,16.1,34.2,30.9,36c0.1,1.4,0.2,2.9,0.5,4.4c3,16.1,18.6,26.7,34.7,23.7
	c16.1-3,26.7-18.6,23.7-34.7c-0.2-1-0.4-2-0.7-2.9c0,0,18.1-5.1,20.5-25.4c0.4-3.2-4.9,6.8-13.6,13.1c-6,4.4-17.3,1.2-17.3,1.2
	s4.7,24.3-19.5,26.2c-19.5,1.5-20.8-24.6-20.8-24.6S346.1,422.3,333.9,392.5"/>
</svg>
