<svg xmlns="http://www.w3.org/2000/svg" viewBox="0 0 1088.37 434.87"><defs><style>.cls-1{fill:#e6e7e8;}.cls-2,.cls-3{fill:none;stroke-linecap:round;stroke-linejoin:round;stroke-width:20px;}.cls-2{stroke:#fff;}.cls-3{stroke:#d1d3d4;}</style></defs><title>long_thought_cloud_1</title><g id="Layer_2" data-name="Layer 2"><g id="Layer_11" data-name="Layer 11"><path class="cls-1" d="M90.64,119.83s12.33-27.67,59.67-34C200.07,79.17,220,98.5,220,98.5S241.24,59,338.64,44.83C423.31,32.5,464,56.16,464,56.16s5.36-35.87,49.34-44.33C556.64,3.5,578,28.16,578,28.16S600.89-2.55,660,.5c51.67,2.66,72,35.66,72,35.66s36.5-12.83,65.84,4.84C830.75,60.84,830,96.16,830,96.16s32-35,83-18.66c41.67,13.33,49,56.66,49,56.66s58.71-17.47,87.34,24.34c21,30.66,6.66,61.66,6.66,61.66s32,10,32,48-28,48-28,48,25,25,11.67,51.67c-14.2,28.4-53.67,18.33-53.67,18.33s-7,37.67-125,37.34c-97.33-.28-113-37.34-113-37.34H490s-12,16-40,22-52-10-52-10-14,36-74,36-93.33-36-93.33-36-26.28,19.66-58.67,10c-34.66-10.33-38-42-38-42s-45.55,20.56-80.33-15.33C22.31,318.5,42,282.16,42,282.16S-.3,260.16.31,211.83c.5-39.5,33.5-48.5,33.5-48.5S36.31,108.83,90.64,119.83Z"/><path class="cls-2" d="M110.18,111.83s18.39-16.54,56-17.37c39.63-.88,56.29,16.2,56.29,16.2s24.31-45.3,112.09-56.58c99.25-12.75,131.25,14.5,131.25,14.5"/><path class="cls-2" d="M484.93,37.08s25-28.25,69.25-12.75"/><path class="cls-2" d="M576.47,45.83s16.25-31.69,67.34-35.5c33.5-2.5,54.12,10,54.12,10"/><path class="cls-2" d="M722.56,54.33s32.25-32,76.25-.5"/><path class="cls-2" d="M63.93,130.58A32.88,32.88,0,0,0,50,142.5c-7.35,11.86-7.16,27-7.16,27s-45.5,11-29.34,63.83"/><path class="cls-2" d="M827.31,114.33s15.39-30,56.62-31.25C921.06,82,938,106.29,938,106.29"/><path class="cls-2" d="M113.31,209.83s-6.52-29.76,17-46.75c24.33-17.58,52.16-8.58,52.16-8.58"/><path class="cls-2" d="M523.56,115.08S538.31,89.33,575,83.16c29.54-5,51.67,9.34,51.67,9.34"/><path class="cls-3" d="M807.43,312.21s13.52,20.28,7,39.62c-7.75,23-34.25,24.5-34.25,24.5H488.39"/><path class="cls-3" d="M787.14,380s14,34,110.67,34.46c124.5.54,119.5-49.8,119.5-49.8"/><path class="cls-3" d="M1019.64,376.16s33.83,10.17,44.5-14.83c9.83-23-18-44.67-18-44.67"/><path class="cls-3" d="M1071.81,293.33a49.48,49.48,0,0,0,6.5-26.83c-.91-16.69-8.5-24.61-8.5-24.61"/><path class="cls-3" d="M397.81,387.16s25.83,19.84,58.08,9.42c42.19-13.63,33.58-46.42,33.58-46.42"/><path class="cls-3" d="M234.31,390s39.83,41,104.37,34.08c67.41-7.22,57.13-65.62,57.13-65.62"/><path class="cls-3" d="M141.06,357.46s3.87,43.72,49.87,43.37c49.13-.37,43-36.67,43-36.67"/><path class="cls-3" d="M895,332.5s36,21.66,69.67,2.33,31.67-48,31.67-48"/><path class="cls-3" d="M50,328.58S63.86,366,111.12,361.77C152.45,358.1,164,321.83,164,321.83"/></g></g></svg>