<svg xmlns="http://www.w3.org/2000/svg" viewBox="0 0 1087.67 433.88"><defs><style>.cls-1{fill:#e6e7e8;}</style></defs><title>long_thought_cloud</title><g id="Layer_2" data-name="Layer 2"><g id="Layer_11" data-name="Layer 11"><path class="cls-1" d="M90.34,119.55s12.33-27.67,59.67-34c49.76-6.66,69.66,12.66,69.66,12.66s21.27-39.47,118.67-53.66C423,32.21,463.67,55.88,463.67,55.88S469,20,513,11.55c43.33-8.34,64.66,16.33,64.66,16.33s22.92-30.72,82-27.67c51.67,2.67,72,35.67,72,35.67s36.5-12.83,65.84,4.83c32.94,19.85,32.16,55.17,32.16,55.17s32-35,83-18.67c41.67,13.34,49,56.67,49,56.67s58.71-17.48,87.34,24.33c21,30.67,6.66,61.67,6.66,61.67s32,10,32,48-28,48-28,48,25,25,11.67,51.67c-14.2,28.4-53.67,18.33-53.67,18.33s-7,37.67-125,37.33c-97.33-.27-113-37.33-113-37.33h-290s-12,16-40,22-52-10-52-10-14,36-74,36-93.33-36-93.33-36-26.28,19.65-58.67,10c-34.66-10.33-38-42-38-42s-45.55,20.56-80.33-15.33C22,318.21,41.67,281.88,41.67,281.88S-.61,259.88,0,211.55c.5-39.5,33.5-48.5,33.5-48.5S36,108.55,90.34,119.55Z"/></g></g></svg>