<svg xmlns="http://www.w3.org/2000/svg" viewBox="0 0 104.2 100.07"><defs><style>.cls-1{fill:#e6e7e8;}.cls-2,.cls-3{fill:none;stroke-linecap:round;stroke-linejoin:round;stroke-width:15px;}.cls-2{stroke:#d1d3d4;}.cls-3{stroke:#fff;}</style></defs><title>small_cloud_2</title><g id="Layer_2" data-name="Layer 2"><g id="Layer_11" data-name="Layer 11"><path class="cls-1" d="M13.88,27.28S16.38,6,36.63,1.28c28.17-6.61,35.5,16.5,35.5,16.5s19.75-5.75,30,16c7.7,16.34-8.5,35.5-8.5,35.5s6.75,9.75-2.25,19.5-23.25,4.5-23.25,4.5-26,15-48-.5C.47,78.93,8.88,58.28,8.88,58.28s-11-6.13-8.5-18.5S13.88,27.28,13.88,27.28Z"/><path class="cls-2" d="M17,78.7S23,91.61,43,92.53A39.46,39.46,0,0,0,66.21,86s11.89,6.44,20.25-1.84c8.75-8.66.08-21.75.08-21.75"/><path class="cls-3" d="M20.63,32.28S22.63,1,53.5,8.72"/></g></g></svg>