<svg xmlns="http://www.w3.org/2000/svg" viewBox="0 0 359.58 410.6"><defs><style>.cls-1{fill:#eaeaea;}.cls-2,.cls-3,.cls-4,.cls-5{fill:none;stroke-linecap:round;stroke-linejoin:round;}.cls-2,.cls-5{stroke:#d8d8d8;}.cls-2{stroke-width:44px;}.cls-3,.cls-4{stroke:#fdfefe;}.cls-3{stroke-width:25px;}.cls-4{stroke-width:14px;}.cls-5{stroke-width:17px;}</style></defs><title>thought_cloud</title><g id="Layer_2" data-name="Layer 2"><g id="Layer_7" data-name="Layer 7"><path class="cls-1" d="M347.9,155.57a69.63,69.63,0,0,0,3.8-22.9,70.59,70.59,0,0,0-70.6-70.6,84.48,84.48,0,0,0-10.2.7A82.17,82.17,0,0,0,114.1,55a57.52,57.52,0,0,0-75.8,77.4,67.55,67.55,0,0,0,21.5,128,56.4,56.4,0,0,0,90.1,23.7,82.41,82.41,0,0,0,99.7-6.4,83.9,83.9,0,0,0,109.5-79.9A82.12,82.12,0,0,0,347.9,155.57Z"/><path class="cls-1" d="M201.8,338a30.23,30.23,0,0,0-35.3-24.1,29.85,29.85,0,0,0-15,7.6,35.05,35.05,0,1,0-28.1,60.4,34.9,34.9,0,0,0,.5,4.4,29.71,29.71,0,1,0,58.4-11,24.6,24.6,0,0,0-.7-2.9A30.38,30.38,0,0,0,201.8,338Z"/><path class="cls-2" d="M327.68,165.4c17.5,15.25,22.25,115.25-76.75,91.75,0,0-36.79,54.45-100.5,2.75,0,0-47.91,49.66-83.58-20.67,0,0-46.33-2.67-44.67-48.33"/><path class="cls-3" d="M51.18,133.65c-8.5-13.5-16.5-69.25,36-71.25"/><path class="cls-3" d="M134.18,43.65s29-49.75,86.75-23.5"/><path class="cls-3" d="M233.85,104.56c2.58-17.66,44.33-45.91,79.83-20"/><path class="cls-4" d="M100.06,350.77c-3.38-6.5,5.87-40.25,37.12-29.87"/><path class="cls-4" d="M151.81,332.65s8.87-18.75,30.5-10"/><path class="cls-5" d="M131.43,381.27c2.75,30.63,50.75,27.88,41.88-10.87,0,0,15.12-3.25,19.75-21.13"/></g></g></svg>