<svg xmlns="http://www.w3.org/2000/svg" xmlns:xlink="http://www.w3.org/1999/xlink" viewBox="0 0 1000 1000"><defs><style>.cls-1,.cls-10,.cls-12,.cls-15,.cls-17,.cls-18,.cls-2,.cls-23,.cls-24,.cls-4,.cls-6{fill:none;}.cls-1,.cls-12{stroke:#f3859a;}.cls-1,.cls-10,.cls-12,.cls-15,.cls-17,.cls-18,.cls-2,.cls-24,.cls-4,.cls-6{stroke-linecap:round;}.cls-1{stroke-linejoin:round;}.cls-1,.cls-12,.cls-4,.cls-6{stroke-width:35px;}.cls-17,.cls-18,.cls-2{stroke:#f6a2ab;}.cls-10,.cls-12,.cls-15,.cls-17,.cls-18,.cls-2,.cls-24,.cls-4,.cls-6{stroke-miterlimit:10;}.cls-2{stroke-width:8px;}.cls-3{fill:#af3e5e;}.cls-4{stroke:#af3e5e;}.cls-5{fill:#f3859a;}.cls-6{stroke:#ce5b77;}.cls-7{fill:#f1646b;}.cls-8{fill:url(#linear-gradient);}.cls-9{fill:#dc5a26;}.cls-10{stroke:#f47b20;stroke-width:25px;}.cls-11{fill:#ce5b77;}.cls-13{fill:#1e144c;}.cls-14{fill:#f47b20;}.cls-15{stroke:#8d2864;stroke-width:5px;}.cls-16{fill:#c94c27;}.cls-17{stroke-width:6px;}.cls-18{stroke-width:4px;}.cls-19{fill:#fcea01;opacity:0.6;}.cls-20{fill:#ead917;}.cls-20,.cls-25{opacity:0.8;}.cls-21{fill:#f7ec8e;opacity:0.9;}.cls-22,.cls-25{fill:#fff;}.cls-24{stroke:#fff;stroke-width:3px;}</style><linearGradient id="linear-gradient" x1="498.83" y1="323.18" x2="502.24" y2="834.02" gradientUnits="userSpaceOnUse"><stop offset="0" stop-color="#f47b20"/><stop offset="0.59" stop-color="#ea7023"/><stop offset="1" stop-color="#cc4d27"/></linearGradient></defs><title>Artboard 1</title><g id="Layer_1" data-name="Layer 1"><path id="RArm" class="cls-1" d="M432.34,329.21c-117.45,9.48-115.86,133.1-43.51,158.68"/><path id="RArm-2" data-name="RArm" class="cls-2" d="M422.93,343.92c-108.89,20.93-67.71,125-27.59,131.68"/><path class="cls-3" d="M342.2,466.77a90.81,90.81,0,0,1-16.27-51.91,93.09,93.09,0,0,1,27.17-65.52,104,104,0,0,1,33.5-22.49c13.35-5.69,28.9-9.33,46.64-10.19a5,5,0,0,0,4.65-4,17.32,17.32,0,0,0-7-.85c-18,1.45-34,5.38-47.78,11.4A110.88,110.88,0,0,0,355.81,340,96.49,96.49,0,0,0,321,414.41a98.36,98.36,0,0,0,16,53.89,92.24,92.24,0,0,0,19.5,21.42A90.85,90.85,0,0,0,383,504.39a17.36,17.36,0,0,0,9.41.61C369.69,496.1,353.14,482.55,342.2,466.77Z"/><path id="RLeg" class="cls-4" d="M426.65,567.67s-55.11-.26-80.12,13.49"/><path id="LLeg" class="cls-4" d="M572.86,567.67S628,567.41,653,581.16"/><g id="Body"><g id="Body-2" data-name="Body"><g id="Body-3" data-name="Body"><path class="cls-5" d="M451.65,307.54h96.21a25,25,0,0,1,25,25V571.13a10,10,0,0,1-10,10H436.65a10,10,0,0,1-10-10V332.54A25,25,0,0,1,451.65,307.54Z"/><path id="Shadow" class="cls-3" d="M547.86,307.54H451.65a25,25,0,0,0-25,25v8.26a25,25,0,0,1,25-25h96.21a25,25,0,0,1,25,25v-8.26A25,25,0,0,0,547.86,307.54Z"/><line class="cls-6" x1="497.86" y1="289.24" x2="497.86" y2="320.03"/></g><circle class="cls-7" cx="457.86" cy="378.98" r="5"/></g><g id="Robe"><path class="cls-8" d="M427.35,468.92,572.18,324.09a24.72,24.72,0,0,1,1.38,8.15v469a10,10,0,0,1-10,10H437.35a10,10,0,0,1-10-10Z"/><path class="cls-9" d="M557.86,309.18,427,440.06v28.86L571.81,324.09A25,25,0,0,0,557.86,309.18Z"/><line class="cls-10" x1="410.89" y1="456.14" x2="565.22" y2="301.82"/></g></g><g id="Ear"><circle class="cls-5" cx="435.36" cy="265.5" r="12.5"/></g><circle class="cls-11" cx="435.36" cy="265.5" r="6.25"/><g id="Ear-2" data-name="Ear"><circle class="cls-5" cx="560.36" cy="265.5" r="12.5"/></g><g id="Ear-3" data-name="Ear"><circle class="cls-11" cx="560.36" cy="265.5" r="6.25"/></g><path class="cls-5" d="M462.79,598.31a17.61,17.61,0,0,0-17.7,17.52,17.19,17.19,0,0,0,.86,5.39h0l14.93,41.37h0a10,10,0,0,0,19.62-2.7V615.83A17.62,17.62,0,0,0,462.79,598.31Z"/><path class="cls-12" d="M346.53,581.16c40.06,43.23,116.33,34.64,116.33,34.64"/><path class="cls-5" d="M536.71,598.31a17.49,17.49,0,0,1,16.85,22.91h0l-14.93,41.37h0a10,10,0,0,1-19.63-2.7V615.83A17.62,17.62,0,0,1,536.71,598.31Z"/><path class="cls-12" d="M653,581.16c-40.06,43.23-116.32,34.64-116.32,34.64"/><g id="Backup_face" data-name="Backup face"><circle class="cls-13" cx="522.86" cy="253" r="10"/><circle class="cls-13" cx="472.86" cy="253" r="10"/></g><path id="RArm-3" data-name="RArm" class="cls-1" d="M586.82,331.46c100.42,19.33,95.56,132.13,26.81,156.43"/><path id="RArm-4" data-name="RArm" class="cls-2" d="M579.54,343.92c108.89,20.93,67.7,125,27.59,131.68"/><path class="cls-3" d="M660.27,466.77a90.81,90.81,0,0,0,16.27-51.91,93.18,93.18,0,0,0-27.17-65.52,104.08,104.08,0,0,0-33.5-22.49c-13.36-5.69-15.92-8.16-33.66-9-1.6-.08-8.5-.72-9.35-1.94-.63-.9,1.22-1.32,2.29-1.56,1.66-.37,4.66.45,6.44.6,18,1.45,23.9,2.22,37.72,8.24A111,111,0,0,1,646.66,340a96.44,96.44,0,0,1,34.77,74.46,98.36,98.36,0,0,1-16,53.89A92.19,92.19,0,0,1,646,489.72a90.91,90.91,0,0,1-26.5,14.67l-.09,0a1.58,1.58,0,0,1-1.15-2.94C636.79,492.71,650.68,480.6,660.27,466.77Z"/><path id="Shoulder" class="cls-14" d="M581.71,308.18c-9.14-2.83-19.38,4-22.87,15.29S560,346.17,569.1,349l31.23,12.79c3.11,1.28,6.79-1,8-5l10.2-33c1.22-4-.54-7.92-3.83-8.62Z"/><ellipse id="Face" class="cls-5" cx="497.86" cy="241.6" rx="62.5" ry="68.9"/><line class="cls-15" x1="488.05" y1="275.5" x2="507.66" y2="275.5"/><path class="cls-13" d="M522.86,259.25a10,10,0,0,1-9.82-8.12,9.56,9.56,0,0,0-.18,1.87,10,10,0,0,0,20,0,9.56,9.56,0,0,0-.19-1.87A10,10,0,0,1,522.86,259.25Z"/><path class="cls-13" d="M472.86,259.25a10,10,0,0,1-9.82-8.12,9.56,9.56,0,0,0-.18,1.87,10,10,0,0,0,20,0,9.56,9.56,0,0,0-.19-1.87A10,10,0,0,1,472.86,259.25Z"/><path class="cls-16" d="M614.71,315.23l-33-7.05c-9.14-2.83-19.38,4-22.87,15.29a28.18,28.18,0,0,0-.85,3.73c4.85-7.32,12.89-11.14,20.24-8.87l33.82,7.23c2.41.51,4,2.74,4.28,5.45l2.21-7.16C619.76,319.9,618,315.93,614.71,315.23Z"/><path id="Face-2" data-name="Face" class="cls-17" d="M539.62,288.59c-10.86,11.43-25.51,19-41.7,19-14.62,0-28.09-6.16-38.55-15.67"/><path class="cls-3" d="M495.85,194c31.81,0,60,22.5,64,56.39a78,78,0,0,0,.53-8.83c0-38-28-68.9-62.5-68.9s-62.5,30.85-62.5,68.9a78,78,0,0,0,.52,8.83C439.82,216.54,464.05,194,495.85,194Z"/><path class="cls-18" d="M357.59,570.26C382.11,594.78,413.11,600,449.44,601c3.37.09,10.08-1.38,16.23-.38,6.42,1,12.23,4.94,12.89,15.9"/></g><g id="Layer_3" data-name="Layer 3"><circle class="cls-19" cx="494.9" cy="501.64" r="45"/><circle class="cls-20" cx="494.9" cy="501.64" r="36.25"/><circle class="cls-21" cx="494.9" cy="501.64" r="30"/><circle class="cls-22" cx="494.9" cy="501.64" r="25"/><path class="cls-23" d="M456.18,540.7a55.11,55.11,0,0,1-4.8-5.43"/><path class="cls-24" d="M490.83,556.5a54.69,54.69,0,0,1-22.45-6.68"/><path class="cls-24" d="M543.08,528.16a54.63,54.63,0,0,1-22.26,22"/><path class="cls-24" d="M521.42,453.45a54.84,54.84,0,0,1,16.67,14.11"/><path class="cls-24" d="M443.5,482.06a55.35,55.35,0,0,1,17.12-23.45"/><path class="cls-24" d="M483.21,543.55a43.51,43.51,0,0,1-30.61-31.76"/><path class="cls-24" d="M505.06,543.94a44.32,44.32,0,0,1-9.21,1.2"/><path class="cls-24" d="M521.17,467a43.35,43.35,0,0,1,14.14,18.55,45.1,45.1,0,0,1,1.89,6,43.29,43.29,0,0,1,.88,15.52"/><path class="cls-24" d="M457.32,479.73a43.54,43.54,0,0,1,44.11-21.11"/><circle class="cls-25" cx="555.71" cy="501.64" r="3.75"/><circle class="cls-22" cx="555.71" cy="501.64" r="2.67"/><circle class="cls-25" cx="500.45" cy="574.41" r="7.5"/><circle class="cls-22" cx="500.45" cy="574.41" r="5"/><circle class="cls-25" cx="541.59" cy="431.29" r="7.5"/><circle class="cls-22" cx="541.59" cy="431.29" r="5"/><circle class="cls-25" cx="437.89" cy="507" r="3.75"/><circle class="cls-22" cx="437.89" cy="507" r="2.67"/><circle class="cls-25" cx="440.56" cy="537.89" r="7.5"/><circle class="cls-22" cx="440.56" cy="537.89" r="5"/><circle class="cls-25" cx="518.56" cy="478.08" r="3.75"/><circle class="cls-22" cx="518.56" cy="478.08" r="2.67"/><circle class="cls-25" cx="469.9" cy="447.6" r="7.5"/><circle class="cls-22" cx="469.9" cy="447.6" r="5"/></g></svg>